<?xml version="1.0" encoding="UTF-8" standalone="no"?>
<!-- Created with Inkscape (http://www.inkscape.org/) -->

<svg
   width="330.49908"
   height="380"
   viewBox="0 0 87.444549 100.54166"
   version="1.1"
   id="svg12553"
   inkscape:version="1.1 (c4e8f9e, 2021-05-24)"
   sodipodi:docname="Pythagoras.svg"
   xmlns:inkscape="http://www.inkscape.org/namespaces/inkscape"
   xmlns:sodipodi="http://sodipodi.sourceforge.net/DTD/sodipodi-0.dtd"
   xmlns="http://www.w3.org/2000/svg"
   xmlns:svg="http://www.w3.org/2000/svg"
   xmlns:rdf="http://www.w3.org/1999/02/22-rdf-syntax-ns#"
   xmlns:cc="http://creativecommons.org/ns#"
   xmlns:dc="http://purl.org/dc/elements/1.1/">
  <defs
     id="defs12547" />
  <sodipodi:namedview
     id="base"
     pagecolor="#ffffff"
     bordercolor="#666666"
     borderopacity="1.0"
     inkscape:pageopacity="0.0"
     inkscape:pageshadow="2"
     inkscape:zoom="2.8630195"
     inkscape:cx="179.00681"
     inkscape:cy="181.27714"
     inkscape:document-units="mm"
     inkscape:current-layer="layer3"
     showgrid="false"
     fit-margin-top="0"
     fit-margin-left="0"
     fit-margin-right="0"
     fit-margin-bottom="0"
     units="px"
     inkscape:window-width="2560"
     inkscape:window-height="1422"
     inkscape:window-x="64"
     inkscape:window-y="193"
     inkscape:window-maximized="0"
     inkscape:pagecheckerboard="0">
    <inkscape:grid
       type="xygrid"
       id="grid12870"
       originx="-20.372917"
       originy="84.666661" />
  </sodipodi:namedview>
  <metadata
     id="metadata12550">
    <rdf:RDF>
      <cc:Work
         rdf:about="">
        <dc:format>image/svg+xml</dc:format>
        <dc:type
           rdf:resource="http://purl.org/dc/dcmitype/StillImage" />
      </cc:Work>
    </rdf:RDF>
  </metadata>
  <g
     inkscape:label="Layer 1"
     inkscape:groupmode="layer"
     id="layer1"
     transform="translate(-26.543497,-161.30655)"
     style="display:inline">
    <path
       inkscape:connector-curvature="0"
       id="path33453"
       d="m 26.616839,161.37987 h 87.297891 v 100.3961 H 26.616839 Z m 0,0"
       style="fill:#acc0b0;fill-opacity:1;fill-rule:nonzero;stroke:none;stroke-width:0.276024" />
    <path
       inkscape:connector-curvature="0"
       id="path33787"
       d="m 38.533355,242.56724 c 0,-0.35581 -0.291121,-0.64693 -0.646932,-0.64693 h -6.281685 c -0.355838,0 -0.646933,0.29112 -0.646933,0.64693 v 6.28278 c 0,0.35581 0.291095,0.64693 0.646933,0.64693 h 6.281685 c 0.355811,0 0.646932,-0.29112 0.646932,-0.64693 z m 0,0"
       style="fill:#000000;fill-opacity:1;fill-rule:nonzero;stroke:none;stroke-width:0.276024" />
    <path
       inkscape:connector-curvature="0"
       id="path35483"
       d="M 31.305997,252.58779 H 109.35808"
       style="fill:none;stroke:#000000;stroke-width:0.184533;stroke-linecap:round;stroke-linejoin:round;stroke-miterlimit:10;stroke-opacity:1" />
    <path
       style="fill:#000000;fill-opacity:1;stroke:none;stroke-width:0.276024"
       d="m 67.553914,197.3544 c 0,0.0604 0.04744,0.1035 0.103505,0.1035 0.04744,0 0.08625,-0.0259 0.103505,-0.069 l 0.103531,-0.24152 h 0.612405 l 0.103531,0.23289 c 0.0172,0.0474 0.05175,0.0776 0.107818,0.0776 0.05607,0 0.103505,-0.0474 0.103505,-0.1035 0,-0.0172 -0.0042,-0.0345 -0.01296,-0.0474 l -0.465798,-1.04371 c -0.02593,-0.0518 -0.069,-0.0863 -0.133694,-0.0863 h -0.0087 c -0.06469,0 -0.107817,0.0345 -0.133694,0.0863 l -0.465799,1.04371 c -0.0087,0.0173 -0.0172,0.0345 -0.0172,0.0474 z m 0.396795,-0.40541 0.219949,-0.50461 0.219948,0.50461 z m 0,0"
       id="path7403"
       inkscape:connector-curvature="0" />
    <path
       style="fill:#000000;fill-opacity:1;stroke:none;stroke-width:0.276024"
       d="m 70.993497,197.3544 h 0.741812 c 0.05178,0 0.09922,-0.0431 0.09922,-0.0992 0,-0.0518 -0.04744,-0.0992 -0.09922,-0.0992 h -0.629655 v -0.33641 h 0.539088 c 0.05175,0 0.09919,-0.0431 0.09919,-0.0949 0,-0.0561 -0.04744,-0.10351 -0.09919,-0.10351 h -0.539088 v -0.32346 h 0.62103 c 0.05178,0 0.09491,-0.0431 0.09491,-0.0992 0,-0.0561 -0.04313,-0.0992 -0.09491,-0.0992 h -0.733187 c -0.06038,0 -0.112131,0.0474 -0.112131,0.11214 v 1.03077 c 0,0.0647 0.05175,0.11214 0.112131,0.11214 z m 0,0"
       id="path7395"
       inkscape:connector-curvature="0" />
    <path
       inkscape:connector-curvature="0"
       id="path35723"
       d="M 31.897815,197.02529 H 63.976957"
       style="fill:none;stroke:#000000;stroke-width:0.183832;stroke-linecap:round;stroke-linejoin:round;stroke-miterlimit:10;stroke-opacity:1" />
    <path
       inkscape:connector-curvature="0"
       id="path35725"
       d="M 77.923967,197.02529 H 109.35808"
       style="fill:none;stroke:#000000;stroke-width:0.181974;stroke-linecap:round;stroke-linejoin:round;stroke-miterlimit:10;stroke-opacity:1" />
    <path
       inkscape:connector-curvature="0"
       id="path35727"
       d="m 34.74558,237.2034 v 8.5438"
       style="fill:none;stroke:#000000;stroke-width:0.183832;stroke-linecap:round;stroke-linejoin:round;stroke-miterlimit:10;stroke-opacity:1" />
    <path
       inkscape:connector-curvature="0"
       id="path35729"
       d="m 44.799747,237.2034 v 8.5438"
       style="fill:none;stroke:#000000;stroke-width:0.183832;stroke-linecap:round;stroke-linejoin:round;stroke-miterlimit:10;stroke-opacity:1" />
    <path
       inkscape:connector-curvature="0"
       id="path35731"
       d="m 54.853914,237.2034 v 8.5438"
       style="fill:none;stroke:#000000;stroke-width:0.183832;stroke-linecap:round;stroke-linejoin:round;stroke-miterlimit:10;stroke-opacity:1" />
    <path
       inkscape:connector-curvature="0"
       id="path35733"
       d="m 65.172664,237.2034 v 8.5438"
       style="fill:none;stroke:#000000;stroke-width:0.183832;stroke-linecap:round;stroke-linejoin:round;stroke-miterlimit:10;stroke-opacity:1" />
    <path
       inkscape:connector-curvature="0"
       id="path35735"
       d="m 75.22683,237.2034 v 8.5438"
       style="fill:none;stroke:#000000;stroke-width:0.183832;stroke-linecap:round;stroke-linejoin:round;stroke-miterlimit:10;stroke-opacity:1" />
    <path
       inkscape:connector-curvature="0"
       id="path35737"
       d="m 85.54558,237.2034 v 8.5438"
       style="fill:none;stroke:#000000;stroke-width:0.183832;stroke-linecap:round;stroke-linejoin:round;stroke-miterlimit:10;stroke-opacity:1" />
    <path
       inkscape:connector-curvature="0"
       id="path35739"
       d="m 95.599747,237.2034 v 8.5438"
       style="fill:none;stroke:#000000;stroke-width:0.183832;stroke-linecap:round;stroke-linejoin:round;stroke-miterlimit:10;stroke-opacity:1" />
    <path
       inkscape:connector-curvature="0"
       id="path35741"
       d="m 105.9185,237.2034 v 8.5438"
       style="fill:none;stroke:#000000;stroke-width:0.183832;stroke-linecap:round;stroke-linejoin:round;stroke-miterlimit:10;stroke-opacity:1" />
    <path
       style="fill:#000000;fill-opacity:1;stroke:none;stroke-width:0.276024"
       d="m 74.85009,197.5528 h 0.741812 c 0.05178,0 0.09922,-0.0431 0.09922,-0.0992 0,-0.0517 -0.04744,-0.0992 -0.09922,-0.0992 h -0.629655 v -0.3364 h 0.539088 c 0.05175,0 0.09919,-0.0431 0.09919,-0.0949 0,-0.0561 -0.04744,-0.10351 -0.09919,-0.10351 h -0.539088 v -0.32347 h 0.62103 c 0.05178,0 0.09491,-0.0431 0.09491,-0.0992 0,-0.0561 -0.04313,-0.0992 -0.09491,-0.0992 H 74.85009 c -0.06038,0 -0.11213,0.0474 -0.11213,0.11214 v 1.03077 c 0,0.0647 0.05175,0.11214 0.11213,0.11214 z m 0,0"
       id="path7319"
       inkscape:connector-curvature="0" />
    <path
       style="fill:#000000;fill-opacity:1;stroke:none;stroke-width:0.276024"
       d="m 64.988544,197.67815 c 0.267388,0 0.448522,-0.13801 0.448522,-0.37522 v -0.004 c 0,-0.20701 -0.133694,-0.3019 -0.401082,-0.36659 -0.241511,-0.0561 -0.297603,-0.0992 -0.297603,-0.19839 0,-0.0863 0.07334,-0.15095 0.202724,-0.15095 0.09919,0 0.194072,0.0302 0.288951,0.0949 0.0172,0.0129 0.0345,0.0173 0.05606,0.0173 0.06038,0 0.107818,-0.0474 0.107818,-0.10351 0,-0.0431 -0.02593,-0.0733 -0.05175,-0.0863 -0.112131,-0.0776 -0.237199,-0.11645 -0.39677,-0.11645 -0.250163,0 -0.426984,0.14664 -0.426984,0.36228 v 0.004 c 0,0.2329 0.146632,0.31053 0.414046,0.37522 0.237199,0.0517 0.284639,0.10351 0.284639,0.18977 v 0.004 c 0,0.0949 -0.08625,0.15957 -0.219948,0.15957 -0.138007,0 -0.250137,-0.0474 -0.353669,-0.12938 -0.01296,-0.0129 -0.0345,-0.0216 -0.06469,-0.0216 -0.05607,0 -0.103505,0.0474 -0.103505,0.10351 0,0.0345 0.0172,0.0647 0.04313,0.0863 0.138006,0.10351 0.301916,0.15526 0.470111,0.15526 z m 0,0"
       id="path7315"
       inkscape:connector-curvature="0" />
    <path
       inkscape:connector-curvature="0"
       id="path35807"
       d="m 75.22683,179.72419 v 10.78972"
       style="fill:none;stroke:#000000;stroke-width:0.183832;stroke-linecap:round;stroke-linejoin:round;stroke-miterlimit:10;stroke-opacity:1" />
    <path
       inkscape:connector-curvature="0"
       id="path35811"
       d="m 85.54558,179.72419 v 10.78972"
       style="fill:none;stroke:#000000;stroke-width:0.183832;stroke-linecap:round;stroke-linejoin:round;stroke-miterlimit:10;stroke-opacity:1" />
    <path
       inkscape:connector-curvature="0"
       id="path35813"
       d="m 95.599747,179.72419 v 10.78972"
       style="fill:none;stroke:#000000;stroke-width:0.183832;stroke-linecap:round;stroke-linejoin:round;stroke-miterlimit:10;stroke-opacity:1" />
    <path
       inkscape:connector-curvature="0"
       id="path35815"
       d="m 105.9185,179.72419 v 10.78972"
       style="fill:none;stroke:#000000;stroke-width:0.183832;stroke-linecap:round;stroke-linejoin:round;stroke-miterlimit:10;stroke-opacity:1" />
    <path
       style="fill:#000000;fill-opacity:1;stroke:none;stroke-width:0.276024"
       d="m 66.453939,197.54392 c 0.202698,0 0.336418,-0.0647 0.452861,-0.1682 0.0217,-0.0173 0.03881,-0.0474 0.03881,-0.0776 0,-0.0561 -0.05175,-0.10351 -0.107818,-0.10351 -0.02593,0 -0.04744,0.009 -0.06469,0.0259 -0.09059,0.0776 -0.18116,0.12076 -0.314854,0.12076 -0.237199,0 -0.414046,-0.2027 -0.414046,-0.44853 0,-0.24584 0.176847,-0.44423 0.414046,-0.44423 0.120756,0 0.215635,0.0431 0.301916,0.11214 0.01296,0.0129 0.0345,0.0216 0.06469,0.0216 0.06038,0 0.11213,-0.0474 0.11213,-0.10782 0,-0.0388 -0.0217,-0.069 -0.04313,-0.0863 -0.11213,-0.0863 -0.237225,-0.14232 -0.431297,-0.14232 -0.379519,0 -0.646933,0.29327 -0.646933,0.64693 v 0.004 c 0,0.36228 0.271727,0.64693 0.638307,0.64693 z m 0,0"
       id="path7287"
       inkscape:connector-curvature="0" />
    <path
       style="fill:#000000;fill-opacity:1;stroke:none;stroke-width:0.276024"
       d="m 69.446293,197.44497 c 0,0.0647 0.05175,0.11214 0.112131,0.11214 h 0.677121 c 0.05607,0 0.103532,-0.0431 0.103532,-0.0992 0,-0.0561 -0.04747,-0.10351 -0.103532,-0.10351 H 69.67058 v -0.95314 c 0,-0.0604 -0.05178,-0.10782 -0.112156,-0.10782 -0.06038,0 -0.112131,0.0474 -0.112131,0.10782 z m 0,0"
       id="path7283"
       inkscape:connector-curvature="0" />
    <path
       style="fill:#000000;fill-opacity:1;stroke:none;stroke-width:0.276024"
       d="m 34.621094,200.89411 c 0,0.0776 0.06038,0.13802 0.133694,0.13802 0.07763,0 0.138007,-0.0604 0.138007,-0.13802 v -1.3068 c 0,-0.0733 -0.06038,-0.1337 -0.138007,-0.1337 h -0.0042 c -0.03881,0 -0.07763,0.009 -0.129382,0.0259 l -0.237225,0.0733 c -0.05175,0.0173 -0.09057,0.0604 -0.09057,0.11645 0,0.0647 0.05606,0.11644 0.120756,0.11644 0.01296,0 0.0345,-0.004 0.04744,-0.009 l 0.159596,-0.0474 z m 0,0"
       id="path7275"
       inkscape:connector-curvature="0" />
    <path
       style="fill:#000000;fill-opacity:1;stroke:none;stroke-width:0.276024"
       d="m 44.255949,200.8898 c 0,0.0819 0.06038,0.12939 0.146632,0.12939 h 0.875533 c 0.06469,0 0.120756,-0.0518 0.120756,-0.12077 0,-0.0647 -0.05607,-0.11644 -0.120756,-0.11644 h -0.625369 l 0.314827,-0.2674 c 0.27604,-0.21996 0.405421,-0.35365 0.405421,-0.59518 v -0.009 c 0,-0.27603 -0.211349,-0.46148 -0.513238,-0.46148 -0.241512,0 -0.383858,0.0949 -0.508926,0.25015 -0.0217,0.0259 -0.0345,0.0561 -0.0345,0.0862 0,0.069 0.05607,0.12076 0.125068,0.12076 0.04313,0 0.07334,-0.0173 0.09491,-0.0388 0.09488,-0.11645 0.181134,-0.17252 0.306203,-0.17252 0.138006,0 0.250137,0.0863 0.250137,0.24152 0,0.13801 -0.07763,0.23721 -0.293264,0.41404 l -0.474425,0.40541 c -0.04313,0.0388 -0.069,0.0819 -0.069,0.1337 z m 0,0"
       id="path7271"
       inkscape:connector-curvature="0" />
    <path
       style="fill:#000000;fill-opacity:1;stroke:none;stroke-width:0.276024"
       d="m 55.013325,201.04506 c 0.323453,0 0.543428,-0.2027 0.543428,-0.49167 v -0.004 c 0,-0.28465 -0.224287,-0.40109 -0.457174,-0.43129 l 0.366607,-0.37521 c 0.04313,-0.0474 0.07763,-0.0863 0.07763,-0.15095 0,-0.0733 -0.06038,-0.11645 -0.138007,-0.11645 h -0.789278 c -0.06469,0 -0.120756,0.0517 -0.120756,0.11645 0,0.0647 0.05606,0.11644 0.120756,0.11644 h 0.560678 l -0.362267,0.38816 c -0.04313,0.0431 -0.05607,0.0733 -0.05607,0.11214 0,0.0604 0.05175,0.11644 0.116444,0.11644 h 0.05607 c 0.215635,0 0.353642,0.0863 0.353642,0.23721 v 0.004 c 0,0.14233 -0.112131,0.2329 -0.267388,0.2329 -0.142319,0 -0.25445,-0.0474 -0.349356,-0.14664 -0.0217,-0.0216 -0.05175,-0.0345 -0.09057,-0.0345 -0.07332,0 -0.129381,0.0604 -0.129381,0.12938 0,0.0388 0.0172,0.0776 0.04313,0.0992 0.125069,0.12076 0.293291,0.19839 0.521864,0.19839 z m 0,0"
       id="path7267"
       inkscape:connector-curvature="0" />
    <path
       style="fill:#000000;fill-opacity:1;stroke:none;stroke-width:0.276024"
       d="m 65.337817,200.90274 c 0,0.0733 0.05606,0.12939 0.129381,0.12939 0.07334,0 0.129408,-0.0561 0.129408,-0.12939 v -0.22859 h 0.120755 c 0.06469,0 0.112131,-0.0517 0.112131,-0.11213 0,-0.0604 -0.04744,-0.11213 -0.112131,-0.11213 H 65.596606 V 199.583 c 0,-0.0733 -0.05607,-0.1337 -0.129408,-0.1337 -0.08194,0 -0.116443,0.0345 -0.168196,0.0906 l -0.724561,0.86257 c -0.03881,0.0431 -0.06038,0.0906 -0.06038,0.14233 0,0.0733 0.06038,0.12938 0.133694,0.12938 h 0.69006 z m -0.5089,-0.45285 0.5089,-0.61243 v 0.61243 z m 0,0"
       id="path7263"
       inkscape:connector-curvature="0" />
    <path
       style="fill:#000000;fill-opacity:1;stroke:none;stroke-width:0.276024"
       d="m 75.346422,201.04506 c 0.327766,0 0.564991,-0.20702 0.564991,-0.52186 v -0.004 c 0,-0.32778 -0.237225,-0.48735 -0.539115,-0.48735 -0.103505,0 -0.172508,0.0173 -0.245824,0.0431 l 0.02593,-0.36228 h 0.57793 c 0.069,0 0.120755,-0.0517 0.120755,-0.11644 0,-0.069 -0.05175,-0.12076 -0.120755,-0.12076 h -0.698687 c -0.06472,0 -0.120782,0.0474 -0.125095,0.12076 l -0.03019,0.55636 c -0.0042,0.0517 0.01297,0.0906 0.05175,0.11644 0.05175,0.0388 0.08625,0.0561 0.129408,0.0561 0.03881,0 0.11213,-0.0561 0.263075,-0.0561 0.189759,0 0.31914,0.0992 0.31914,0.25878 v 0.004 c 0,0.16389 -0.125068,0.2674 -0.297577,0.2674 -0.120756,0 -0.232886,-0.0431 -0.336417,-0.12939 -0.0217,-0.0216 -0.04744,-0.0302 -0.08194,-0.0302 -0.069,0 -0.129381,0.0604 -0.129381,0.1337 0,0.0431 0.0217,0.0776 0.05606,0.10351 0.125069,0.0992 0.284665,0.1682 0.495988,0.1682 z m 0,0"
       id="path7259"
       inkscape:connector-curvature="0" />
    <path
       style="fill:#000000;fill-opacity:1;stroke:none;stroke-width:0.276024"
       d="m 85.546692,201.04506 c 0.323479,0 0.573616,-0.21996 0.573616,-0.52617 v -0.004 c 0,-0.30622 -0.241511,-0.48304 -0.539115,-0.48304 -0.185446,0 -0.288951,0.0733 -0.370893,0.15095 0.01296,-0.28034 0.138007,-0.48736 0.370893,-0.48736 0.103505,0 0.181134,0.0302 0.263076,0.0863 0.0217,0.009 0.04315,0.0172 0.06903,0.0172 0.069,0 0.129382,-0.0517 0.129382,-0.12507 0,-0.0561 -0.02593,-0.0906 -0.069,-0.11645 -0.09919,-0.069 -0.224287,-0.11214 -0.383857,-0.11214 -0.439923,0 -0.664184,0.37091 -0.664184,0.84533 v 0.004 c 0,0.31053 0.07332,0.4701 0.189759,0.58655 0.103532,0.10351 0.241539,0.16389 0.431298,0.16389 z m -0.0087,-0.23721 c -0.194071,0 -0.31914,-0.11644 -0.31914,-0.27602 v -0.004 c 0,-0.14664 0.120756,-0.27171 0.310515,-0.27171 0.194072,0 0.31914,0.11644 0.31914,0.27171 v 0.004 c 0,0.15958 -0.116443,0.27602 -0.310515,0.27602 z m 0,0"
       id="path7255"
       inkscape:connector-curvature="0" />
    <path
       style="fill:#000000;fill-opacity:1;stroke:none;stroke-width:0.276024"
       d="m 95.326406,200.90705 c 0,0.0776 0.06903,0.12508 0.138033,0.12508 0.05607,0 0.09919,-0.0302 0.133694,-0.0906 l 0.638307,-1.21624 c 0.0217,-0.0431 0.03881,-0.0906 0.03881,-0.12938 0,-0.0776 -0.04744,-0.12076 -0.125069,-0.12076 h -0.866907 c -0.06469,0 -0.120756,0.0517 -0.120756,0.11645 0,0.069 0.05606,0.12076 0.120756,0.12076 h 0.668496 l -0.599493,1.11272 c -0.01296,0.0259 -0.02593,0.0604 -0.02593,0.0819 z m 0,0"
       id="path7251"
       inkscape:connector-curvature="0" />
    <path
       style="fill:#000000;fill-opacity:1;stroke:none;stroke-width:0.276024"
       d="m 105.8677,201.04075 c 0.3407,0 0.59086,-0.17252 0.59086,-0.44854 v -0.004 c 0,-0.18114 -0.10781,-0.29328 -0.28035,-0.37091 0.13372,-0.069 0.2286,-0.17251 0.2286,-0.34503 v -0.004 c 0,-0.23721 -0.2286,-0.41835 -0.53911,-0.41835 -0.30621,0 -0.53481,0.18114 -0.53481,0.41835 v 0.004 c 0,0.17252 0.0949,0.27603 0.22429,0.34503 -0.17253,0.0733 -0.27604,0.18977 -0.27604,0.37522 v 0.004 c 0,0.2674 0.25017,0.44423 0.58656,0.44423 z m 0,-0.91433 c -0.15957,0 -0.27602,-0.0949 -0.27602,-0.22858 v -0.004 c 0,-0.11645 0.11213,-0.21565 0.27602,-0.21565 0.16819,0 0.27601,0.0992 0.27601,0.21565 v 0.004 c 0,0.1337 -0.11644,0.22858 -0.27601,0.22858 z m 0,0.68575 c -0.2027,0 -0.31914,-0.10351 -0.31914,-0.22859 v -0.004 c 0,-0.14232 0.138,-0.2372 0.31914,-0.2372 0.18544,0 0.32776,0.0949 0.32776,0.2372 v 0.004 c 0,0.12508 -0.12507,0.22859 -0.32776,0.22859 z m 0,0"
       id="path7247"
       inkscape:connector-curvature="0" />
    <path
       inkscape:connector-curvature="0"
       id="path36677"
       d="m 48.587522,242.56724 c 0,-0.35581 -0.291121,-0.64693 -0.646933,-0.64693 h -6.281684 c -0.355812,0 -0.646933,0.29112 -0.646933,0.64693 v 6.28278 c 0,0.35581 0.291121,0.64693 0.646933,0.64693 h 6.281684 c 0.355812,0 0.646933,-0.29112 0.646933,-0.64693 z m 0,0"
       style="fill:#000000;fill-opacity:1;fill-rule:nonzero;stroke:none;stroke-width:0.276024" />
    <path
       inkscape:connector-curvature="0"
       id="path36679"
       d="m 58.641689,242.56724 c 0,-0.35581 -0.291121,-0.64693 -0.646933,-0.64693 h -6.281711 c -0.355785,0 -0.646906,0.29112 -0.646906,0.64693 v 6.28278 c 0,0.35581 0.291121,0.64693 0.646906,0.64693 h 6.281711 c 0.355812,0 0.646933,-0.29112 0.646933,-0.64693 z m 0,0"
       style="fill:#000000;fill-opacity:1;fill-rule:nonzero;stroke:none;stroke-width:0.276024" />
    <path
       inkscape:connector-curvature="0"
       id="path36681"
       d="m 68.960439,242.56724 c 0,-0.35581 -0.29001,-0.64693 -0.645848,-0.64693 h -6.28277 c -0.355811,0 -0.646932,0.29112 -0.646932,0.64693 v 6.28278 c 0,0.35581 0.291121,0.64693 0.646932,0.64693 h 6.28277 c 0.355838,0 0.645848,-0.29112 0.645848,-0.64693 z m 0,0"
       style="fill:#000000;fill-opacity:1;fill-rule:nonzero;stroke:none;stroke-width:0.276024" />
    <path
       inkscape:connector-curvature="0"
       id="path36683"
       d="m 79.014605,242.56724 c 0,-0.35581 -0.291121,-0.64693 -0.646906,-0.64693 h -6.281711 c -0.355812,0 -0.646933,0.29112 -0.646933,0.64693 v 6.28278 c 0,0.35581 0.291121,0.64693 0.646933,0.64693 h 6.281711 c 0.355785,0 0.646906,-0.29112 0.646906,-0.64693 z m 0,0"
       style="fill:#000000;fill-opacity:1;fill-rule:nonzero;stroke:none;stroke-width:0.276024" />
    <path
       inkscape:connector-curvature="0"
       id="path36685"
       d="m 89.333355,242.56724 c 0,-0.35581 -0.291121,-0.64693 -0.646959,-0.64693 h -6.281684 c -0.355812,0 -0.646907,0.29112 -0.646907,0.64693 v 6.28278 c 0,0.35581 0.291095,0.64693 0.646907,0.64693 h 6.281684 c 0.355838,0 0.646959,-0.29112 0.646959,-0.64693 z m 0,0"
       style="fill:#000000;fill-opacity:1;fill-rule:nonzero;stroke:none;stroke-width:0.276024" />
    <path
       inkscape:connector-curvature="0"
       id="path36687"
       d="m 99.387522,242.56724 c 0,-0.35581 -0.291121,-0.64693 -0.646906,-0.64693 h -6.28277 c -0.355838,0 -0.645874,0.29112 -0.645874,0.64693 v 6.28278 c 0,0.35581 0.290036,0.64693 0.645874,0.64693 h 6.28277 c 0.355785,0 0.646906,-0.29112 0.646906,-0.64693 z m 0,0"
       style="fill:#000000;fill-opacity:1;fill-rule:nonzero;stroke:none;stroke-width:0.276024" />
    <path
       inkscape:connector-curvature="0"
       id="path36689"
       d="m 109.70627,242.56724 c 0,-0.35581 -0.29112,-0.64693 -0.64693,-0.64693 h -6.28171 c -0.35579,0 -0.64691,0.29112 -0.64691,0.64693 v 6.28278 c 0,0.35581 0.29112,0.64693 0.64691,0.64693 h 6.28171 c 0.35581,0 0.64693,-0.29112 0.64693,-0.64693 z m 0,0"
       style="fill:#000000;fill-opacity:1;fill-rule:nonzero;stroke:none;stroke-width:0.276024" />
    <path
       style="fill:#000000;fill-opacity:1;stroke:none;stroke-width:0.276024"
       d="m 76.814328,197.35468 c 0.185447,0 0.336418,-0.0647 0.444235,-0.13802 0.05175,-0.0302 0.07763,-0.0776 0.07763,-0.13801 v -0.3364 c 0,-0.0604 -0.04744,-0.11214 -0.11213,-0.11214 h -0.349356 c -0.05175,0 -0.09919,0.0431 -0.09919,0.0992 0,0.0517 0.04744,0.0949 0.09919,0.0949 h 0.250164 v 0.2329 c -0.07766,0.0604 -0.185473,0.0949 -0.306229,0.0949 -0.25445,0 -0.426985,-0.18977 -0.426985,-0.44854 0,-0.24152 0.176848,-0.44423 0.409734,-0.44423 0.133694,0 0.224261,0.0388 0.30189,0.0992 0.0217,0.0129 0.04315,0.0259 0.06903,0.0259 0.06038,0 0.112131,-0.0517 0.112131,-0.11213 0,-0.0431 -0.02593,-0.0733 -0.04744,-0.0906 -0.11213,-0.082 -0.241538,-0.12507 -0.426985,-0.12507 -0.379518,0 -0.646932,0.29758 -0.646932,0.64693 v 0.004 c 0,0.36659 0.254476,0.64693 0.651245,0.64693 z m 0,0"
       id="path6783"
       inkscape:connector-curvature="0" />
    <path
       style="fill:#000000;fill-opacity:1;stroke:none;stroke-width:0.276024"
       d="m 82.637069,175.35142 c 0,0.0604 0.05175,0.10782 0.11213,0.10782 0.06038,0 0.112157,-0.0474 0.112157,-0.10782 v -0.34072 h 0.276013 l 0.306203,0.39247 c 0.02593,0.0345 0.05606,0.0561 0.107844,0.0561 0.05175,0 0.103505,-0.0388 0.103505,-0.10351 0,-0.0345 -0.01297,-0.0561 -0.0345,-0.0819 l -0.241538,-0.3019 c 0.168222,-0.0561 0.284665,-0.17683 0.284665,-0.37522 v -0.004 c 0,-0.11213 -0.0345,-0.2027 -0.103505,-0.27171 -0.07766,-0.0776 -0.202723,-0.12507 -0.362294,-0.12507 h -0.448548 c -0.06038,0 -0.11213,0.0474 -0.11213,0.11213 z m 0.224287,-0.5348 v -0.42266 h 0.31914 c 0.163883,0 0.258763,0.0733 0.258763,0.21133 0,0.12939 -0.09919,0.21133 -0.258763,0.21133 z m 0,0"
       id="path6767"
       inkscape:connector-curvature="0" />
    <path
       style="fill:#000000;fill-opacity:1;stroke:none;stroke-width:0.276024"
       d="m 84.575168,175.47218 c 0.38817,0 0.659871,-0.29759 0.659871,-0.65125 0,-0.35365 -0.267388,-0.64693 -0.655558,-0.64693 -0.383831,0 -0.655558,0.29328 -0.655558,0.64693 v 0.004 c 0,0.35366 0.267414,0.64693 0.651245,0.64693 z m 0.0042,-0.20271 c -0.250137,0 -0.426984,-0.2027 -0.426984,-0.44854 0,-0.24583 0.176847,-0.44422 0.422672,-0.44422 0.250137,0 0.426984,0.2027 0.426984,0.44422 v 0.004 c 0,0.24584 -0.172534,0.44423 -0.422672,0.44423 z m 0,0"
       id="path6763"
       inkscape:connector-curvature="0" />
    <path
       style="fill:#000000;fill-opacity:1;stroke:none;stroke-width:0.276024"
       d="m 85.80601,175.37729 c 0.0217,0.0561 0.06038,0.0906 0.11213,0.0906 h 0.0217 c 0.05607,0 0.09488,-0.0345 0.116443,-0.0906 l 0.280326,-0.81944 0.280353,0.81944 c 0.0172,0.0561 0.05607,0.0906 0.11213,0.0906 h 0.0217 c 0.05175,0 0.09488,-0.0345 0.116443,-0.0906 l 0.370919,-1.0394 c 0.0042,-0.0129 0.0087,-0.0302 0.0087,-0.0474 0,-0.0561 -0.05175,-0.10351 -0.107818,-0.10351 -0.05609,0 -0.09059,0.0345 -0.107844,0.0776 l -0.288952,0.86689 -0.284638,-0.86258 c -0.0172,-0.0517 -0.05607,-0.0863 -0.112157,-0.0863 h -0.01296 c -0.05607,0 -0.09488,0.0345 -0.11213,0.0863 l -0.284639,0.86258 -0.288978,-0.86689 c -0.01296,-0.0431 -0.05607,-0.0776 -0.107818,-0.0776 -0.06038,0 -0.116443,0.0474 -0.116443,0.10782 0,0.0129 0.0042,0.0302 0.01297,0.0431 z m 0,0"
       id="path6759"
       inkscape:connector-curvature="0" />
    <path
       style="fill:#000000;fill-opacity:1;stroke:none;stroke-width:0.276024"
       d="m 88.177999,175.35142 c 0,0.0604 0.05178,0.10782 0.107845,0.10782 0.06469,0 0.11213,-0.0474 0.11213,-0.10782 v -1.06528 c 0,-0.0604 -0.04744,-0.10783 -0.11213,-0.10783 -0.0345,0 -0.06469,0.009 -0.107845,0.0216 l -0.189759,0.0604 c -0.04744,0.0129 -0.07763,0.0474 -0.07763,0.0949 0,0.0474 0.04744,0.0906 0.09919,0.0906 0.0087,0 0.02593,0 0.03881,-0.004 l 0.129381,-0.0388 z m 0,0"
       id="path6751"
       inkscape:connector-curvature="0" />
    <path
       style="fill:#000000;fill-opacity:1;stroke:none;stroke-width:0.276024"
       d="m 92.614348,175.35142 c 0,0.0604 0.05175,0.10782 0.11213,0.10782 0.06038,0 0.112157,-0.0474 0.112157,-0.10782 v -0.34072 h 0.276013 l 0.306202,0.39247 c 0.02593,0.0345 0.05607,0.0561 0.107845,0.0561 0.05175,0 0.103505,-0.0388 0.103505,-0.10351 0,-0.0345 -0.01296,-0.0561 -0.0345,-0.0819 l -0.241538,-0.3019 c 0.168222,-0.0561 0.284665,-0.17683 0.284665,-0.37522 v -0.004 c 0,-0.11213 -0.0345,-0.2027 -0.103505,-0.27171 -0.07765,-0.0776 -0.202724,-0.12507 -0.362294,-0.12507 H 92.72648 c -0.06038,0 -0.11213,0.0474 -0.11213,0.11213 z m 0.224287,-0.5348 v -0.42266 h 0.31914 c 0.163883,0 0.258763,0.0733 0.258763,0.21133 0,0.12939 -0.09919,0.21133 -0.258763,0.21133 z m 0,0"
       id="path6747"
       inkscape:connector-curvature="0" />
    <path
       style="fill:#000000;fill-opacity:1;stroke:none;stroke-width:0.276024"
       d="m 94.552447,175.47218 c 0.38817,0 0.659871,-0.29759 0.659871,-0.65125 0,-0.35365 -0.267388,-0.64693 -0.655558,-0.64693 -0.383831,0 -0.655559,0.29328 -0.655559,0.64693 v 0.004 c 0,0.35366 0.267415,0.64693 0.651246,0.64693 z m 0.0042,-0.20271 c -0.250137,0 -0.426984,-0.2027 -0.426984,-0.44854 0,-0.24583 0.176847,-0.44422 0.422672,-0.44422 0.250137,0 0.426984,0.2027 0.426984,0.44422 v 0.004 c 0,0.24584 -0.172535,0.44423 -0.422672,0.44423 z m 0,0"
       id="path6743"
       inkscape:connector-curvature="0" />
    <path
       style="fill:#000000;fill-opacity:1;stroke:none;stroke-width:0.276024"
       d="m 95.783315,175.37729 c 0.0217,0.0561 0.06038,0.0906 0.11213,0.0906 h 0.0217 c 0.05607,0 0.09488,-0.0345 0.116443,-0.0906 l 0.280326,-0.81944 0.280353,0.81944 c 0.0172,0.0561 0.05607,0.0906 0.11213,0.0906 h 0.0217 c 0.05175,0 0.09488,-0.0345 0.116443,-0.0906 l 0.37092,-1.0394 c 0.0042,-0.0129 0.0087,-0.0302 0.0087,-0.0474 0,-0.0561 -0.05175,-0.10351 -0.107818,-0.10351 -0.05609,0 -0.09059,0.0345 -0.107844,0.0776 l -0.288951,0.86689 -0.284639,-0.86258 c -0.0172,-0.0517 -0.05607,-0.0863 -0.112157,-0.0863 h -0.01296 c -0.05607,0 -0.09488,0.0345 -0.11213,0.0863 l -0.284639,0.86258 -0.288978,-0.86689 c -0.01296,-0.0431 -0.05606,-0.0776 -0.107817,-0.0776 -0.06038,0 -0.116444,0.0474 -0.116444,0.10782 0,0.0129 0.0042,0.0302 0.01297,0.0431 z m 0,0"
       id="path6739"
       inkscape:connector-curvature="0" />
    <path
       style="fill:#000000;fill-opacity:1;stroke:none;stroke-width:0.276024"
       d="m 97.913793,175.3471 c 0,0.0647 0.05175,0.10351 0.116443,0.10351 h 0.711623 c 0.05607,0 0.09919,-0.0431 0.09919,-0.0949 0,-0.0561 -0.04313,-0.0992 -0.09919,-0.0992 H 98.23296 l 0.258762,-0.21564 c 0.224261,-0.18114 0.327766,-0.28896 0.327766,-0.48736 0,-0.22427 -0.168195,-0.37522 -0.41402,-0.37522 -0.198384,0 -0.314854,0.0733 -0.418359,0.20271 -0.01297,0.0172 -0.0217,0.0431 -0.0217,0.0647 0,0.0561 0.04313,0.10351 0.09919,0.10351 0.0345,0 0.06038,-0.0172 0.07763,-0.0345 0.07765,-0.0949 0.146659,-0.14233 0.245851,-0.14233 0.116443,0 0.202697,0.0733 0.202697,0.19839 0,0.11214 -0.06038,0.19408 -0.232886,0.33641 l -0.38817,0.32778 c -0.03881,0.0345 -0.05606,0.069 -0.05606,0.11213 z m 0,0"
       id="path6731"
       inkscape:connector-curvature="0" />
    <path
       style="fill:#000000;fill-opacity:1;stroke:none;stroke-width:0.276024"
       d="m 102.78183,175.35142 c 0,0.0604 0.0517,0.10782 0.11214,0.10782 0.0604,0 0.11215,-0.0474 0.11215,-0.10782 v -0.34072 h 0.27602 l 0.3062,0.39247 c 0.0259,0.0345 0.0561,0.0561 0.10784,0.0561 0.0517,0 0.10351,-0.0388 0.10351,-0.10351 0,-0.0345 -0.013,-0.0561 -0.0345,-0.0819 l -0.24154,-0.3019 c 0.16822,-0.0561 0.28466,-0.17683 0.28466,-0.37522 v -0.004 c 0,-0.11213 -0.0345,-0.2027 -0.1035,-0.27171 -0.0776,-0.0776 -0.20273,-0.12507 -0.3623,-0.12507 h -0.44854 c -0.0604,0 -0.11213,0.0474 -0.11213,0.11213 z m 0.22429,-0.5348 v -0.42266 h 0.31914 c 0.16389,0 0.25876,0.0733 0.25876,0.21133 0,0.12939 -0.0992,0.21133 -0.25876,0.21133 z m 0,0"
       id="path6727"
       inkscape:connector-curvature="0" />
    <path
       style="fill:#000000;fill-opacity:1;stroke:none;stroke-width:0.276024"
       d="m 104.71993,175.47218 c 0.38817,0 0.65987,-0.29759 0.65987,-0.65125 0,-0.35365 -0.26738,-0.64693 -0.65555,-0.64693 -0.38383,0 -0.65556,0.29328 -0.65556,0.64693 v 0.004 c 0,0.35366 0.26741,0.64693 0.65124,0.64693 z m 0.004,-0.20271 c -0.25013,0 -0.42698,-0.2027 -0.42698,-0.44854 0,-0.24583 0.17685,-0.44422 0.42267,-0.44422 0.25014,0 0.42699,0.2027 0.42699,0.44422 v 0.004 c 0,0.24584 -0.17254,0.44423 -0.42268,0.44423 z m 0,0"
       id="path6723"
       inkscape:connector-curvature="0" />
    <path
       style="fill:#000000;fill-opacity:1;stroke:none;stroke-width:0.276024"
       d="m 105.9508,175.37729 c 0.0217,0.0561 0.0604,0.0906 0.11213,0.0906 h 0.0217 c 0.0561,0 0.0949,-0.0345 0.11645,-0.0906 l 0.28032,-0.81944 0.28035,0.81944 c 0.0172,0.0561 0.0561,0.0906 0.11213,0.0906 h 0.0217 c 0.0517,0 0.0949,-0.0345 0.11645,-0.0906 l 0.37092,-1.0394 c 0.004,-0.0129 0.009,-0.0302 0.009,-0.0474 0,-0.0561 -0.0517,-0.10351 -0.10782,-0.10351 -0.0561,0 -0.0906,0.0345 -0.10785,0.0776 l -0.28892,0.86689 -0.28464,-0.86258 c -0.0172,-0.0517 -0.0561,-0.0863 -0.11216,-0.0863 h -0.013 c -0.0561,0 -0.0949,0.0345 -0.11213,0.0863 l -0.28464,0.86258 -0.28898,-0.86689 c -0.013,-0.0431 -0.0561,-0.0776 -0.10781,-0.0776 -0.0604,0 -0.11645,0.0474 -0.11645,0.10782 0,0.0129 0.004,0.0302 0.013,0.0431 z m 0,0"
       id="path6719"
       inkscape:connector-curvature="0" />
    <path
       style="fill:#000000;fill-opacity:1;stroke:none;stroke-width:0.276024"
       d="m 108.56002,175.47218 c 0.26307,0 0.43989,-0.16821 0.43989,-0.39679 v -0.004 c 0,-0.23289 -0.17682,-0.32778 -0.36658,-0.35365 l 0.29327,-0.30622 c 0.0388,-0.0388 0.0647,-0.069 0.0647,-0.12076 0,-0.0561 -0.0474,-0.0949 -0.11213,-0.0949 h -0.64262 c -0.0517,0 -0.0949,0.0431 -0.0949,0.0949 0,0.0517 0.0431,0.0949 0.0949,0.0949 h 0.45717 l -0.29326,0.31484 c -0.0345,0.0345 -0.0475,0.0604 -0.0475,0.0906 0,0.0517 0.0431,0.0949 0.0949,0.0949 h 0.0474 c 0.1725,0 0.28895,0.069 0.28895,0.19408 v 0.004 c 0,0.11214 -0.0949,0.18977 -0.21995,0.18977 -0.11644,0 -0.20701,-0.0431 -0.28467,-0.12076 -0.0172,-0.0172 -0.0431,-0.0302 -0.0733,-0.0302 -0.0561,0 -0.10781,0.0517 -0.10781,0.10782 0,0.0302 0.0172,0.0604 0.0388,0.0776 0.0992,0.0992 0.24153,0.16389 0.42267,0.16389 z m 0,0"
       id="path6711"
       inkscape:connector-curvature="0" />
    <path
       inkscape:connector-curvature="0"
       id="path37367"
       d="m 79.014605,187.26933 c 0,-0.35581 -0.291121,-0.64693 -0.646906,-0.64693 h -6.281711 c -0.355812,0 -0.646933,0.29112 -0.646933,0.64693 v 6.28278 c 0,0.35581 0.291121,0.64693 0.646933,0.64693 h 6.281711 c 0.355785,0 0.646906,-0.29112 0.646906,-0.64693 z m 0,0"
       style="fill:#000000;fill-opacity:1;fill-rule:nonzero;stroke:none;stroke-width:0.276024" />
    <path
       inkscape:connector-curvature="0"
       id="path37369"
       d="m 89.333355,187.26933 c 0,-0.35581 -0.291121,-0.64693 -0.646959,-0.64693 h -6.281684 c -0.355812,0 -0.646907,0.29112 -0.646907,0.64693 v 6.28278 c 0,0.35581 0.291095,0.64693 0.646907,0.64693 h 6.281684 c 0.355838,0 0.646959,-0.29112 0.646959,-0.64693 z m 0,0"
       style="fill:#000000;fill-opacity:1;fill-rule:nonzero;stroke:none;stroke-width:0.276024" />
    <path
       inkscape:connector-curvature="0"
       id="path37371"
       d="m 99.387522,187.26933 c 0,-0.35581 -0.291121,-0.64693 -0.646906,-0.64693 h -6.28277 c -0.355838,0 -0.645874,0.29112 -0.645874,0.64693 v 6.28278 c 0,0.35581 0.290036,0.64693 0.645874,0.64693 h 6.28277 c 0.355785,0 0.646906,-0.29112 0.646906,-0.64693 z m 0,0"
       style="fill:#000000;fill-opacity:1;fill-rule:nonzero;stroke:none;stroke-width:0.276024" />
    <path
       inkscape:connector-curvature="0"
       id="path37373"
       d="m 109.70627,187.26933 c 0,-0.35581 -0.29112,-0.64693 -0.64693,-0.64693 h -6.28171 c -0.35579,0 -0.64691,0.29112 -0.64691,0.64693 v 6.28278 c 0,0.35581 0.29112,0.64693 0.64691,0.64693 h 6.28171 c 0.35581,0 0.64693,-0.29112 0.64693,-0.64693 z m 0,0"
       style="fill:#000000;fill-opacity:1;fill-rule:nonzero;stroke:none;stroke-width:0.276024" />
    <g
       aria-label="ピタゴラス"
       id="text36774"
       style="font-size:4.56701px;line-height:1.25;stroke-width:0.114176"
       transform="translate(1.0583333)">
      <path
         d="m 59.263064,165.60708 c 0.84033,-0.11418 1.708062,-0.37906 2.365711,-0.76269 0.05937,-0.032 0.09591,-0.0959 0.09591,-0.16441 0,-0.0365 -0.0091,-0.0776 -0.03197,-0.11418 -0.0411,-0.0639 -0.100474,-0.10047 -0.168979,-0.10047 -0.03654,0 -0.07764,0.009 -0.114175,0.032 -0.598279,0.35622 -1.429475,0.62111 -2.141928,0.72615 v -1.23766 c 0,-0.12331 -0.07307,-0.17355 -0.196381,-0.17355 -0.109609,0 -0.196382,0.0502 -0.196382,0.17355 v 2.38398 c 0,0.86316 0.191815,1.03214 1.301598,1.03214 0.616546,0 1.132618,-0.0365 1.548216,-0.1096 0.109609,-0.0228 0.16898,-0.0913 0.16898,-0.19639 0,-0.009 0,-0.0228 0,-0.032 -0.0137,-0.10961 -0.08221,-0.16442 -0.173547,-0.16442 -0.01827,0 -0.03654,0 -0.0548,0.005 -0.415598,0.0731 -0.917969,0.11874 -1.402072,0.11874 -0.899701,0 -1.000175,-0.0365 -1.000175,-0.62568 z m 2.74934,-2.20587 c -0.287722,0 -0.516072,0.22835 -0.516072,0.51151 0,0.28772 0.22835,0.51607 0.516072,0.51607 0.287722,0 0.516072,-0.22835 0.516072,-0.51607 0,-0.28316 -0.22835,-0.51151 -0.516072,-0.51151 z m 0,0.21009 c 0.164412,0 0.30599,0.13701 0.30599,0.30142 0,0.16441 -0.141578,0.30599 -0.30599,0.30599 -0.164412,0 -0.30599,-0.14158 -0.30599,-0.30599 0,-0.16441 0.141578,-0.30142 0.30599,-0.30142 z"
         style="font-family:serif;-inkscape-font-specification:serif"
         id="path50468" />
      <path
         d="m 65.628762,164.43792 c 0.137011,-0.005 0.182681,0.0411 0.182681,0.12788 0,0.0274 -0.0046,0.0594 -0.0137,0.0959 -0.09591,0.50694 -0.274021,0.9408 -0.566309,1.31986 -0.365361,-0.35622 -0.79466,-0.64394 -1.068681,-0.80836 -0.0411,-0.0228 -0.07764,-0.0365 -0.118742,-0.0365 -0.05024,0 -0.105041,0.0228 -0.141577,0.0731 -0.03197,0.0365 -0.05024,0.0776 -0.05024,0.11874 0,0.0548 0.02284,0.10048 0.07307,0.13245 0.333391,0.20551 0.707886,0.49323 1.045845,0.80836 -0.438433,0.43843 -0.972773,0.76269 -1.666959,0.9682 -0.09134,0.0274 -0.141577,0.0959 -0.141577,0.17355 0,0.0274 0.0046,0.0548 0.0137,0.0822 0.0274,0.0776 0.08677,0.10961 0.164412,0.10961 0.0274,0 0.0548,-0.005 0.08677,-0.009 0.863165,-0.23292 1.525381,-0.68049 1.995783,-1.24223 0.401897,-0.47953 0.657649,-1.04584 0.771825,-1.63955 0.0137,-0.0639 0.01827,-0.12331 0.01827,-0.17812 0,-0.28315 -0.173547,-0.44756 -0.456701,-0.443 l -1.46601,0.0228 c 0.06851,-0.14158 0.132443,-0.28772 0.150711,-0.37906 0.0046,-0.0137 0.0046,-0.0274 0.0046,-0.0411 0,-0.0868 -0.06851,-0.13701 -0.146144,-0.15071 -0.0274,0 -0.05024,-0.005 -0.07307,-0.005 -0.07307,0 -0.123309,0.0274 -0.159845,0.11875 -0.150711,0.38363 -0.315124,0.66678 -0.529773,0.93623 -0.200949,0.25119 -0.452134,0.48411 -0.717021,0.67135 -0.05937,0.0411 -0.08677,0.10504 -0.08677,0.16898 0,0.0411 0.0137,0.0776 0.03654,0.10961 0.0411,0.0548 0.09134,0.0822 0.146145,0.0822 0.0411,0 0.08221,-0.0137 0.118742,-0.0411 0.411031,-0.27858 0.79466,-0.68961 1.064113,-1.11891 z"
         style="font-family:serif;-inkscape-font-specification:serif"
         id="path50470" />
      <path
         d="m 67.523357,164.1502 c -0.123309,0 -0.178113,0.0776 -0.178113,0.20095 0,0.11874 0.0548,0.18725 0.173546,0.18725 h 2.39768 c 0.178114,0 0.223784,0.0457 0.223784,0.21008 v 1.89531 c 0,0.16441 -0.04567,0.21465 -0.223784,0.21465 h -2.470752 c -0.123309,0 -0.178113,0.0685 -0.178113,0.19181 0,0.11875 0.06394,0.19639 0.173546,0.19639 h 2.589495 c 0.351659,0 0.520639,-0.18725 0.520639,-0.55261 v -1.98665 c 0,-0.36536 -0.16898,-0.55718 -0.520639,-0.55718 z m 2.662567,-0.49323 c 0,0.0411 0.01827,0.0776 0.04567,0.1096 0.127876,0.14158 0.264887,0.32883 0.360794,0.49781 0.0274,0.0548 0.06394,0.0776 0.118742,0.0776 0.08677,0 0.150711,-0.0594 0.150711,-0.12788 0,-0.0594 -0.01827,-0.0913 -0.03197,-0.11874 -0.08677,-0.15071 -0.251185,-0.36993 -0.392762,-0.51151 -0.03654,-0.0365 -0.06851,-0.0502 -0.118743,-0.0502 -0.07307,0 -0.132443,0.0639 -0.132443,0.12331 z m 0.557175,-0.21465 c 0,0.0548 0.0137,0.0776 0.0548,0.11874 0.12331,0.13244 0.242052,0.31056 0.342526,0.4841 0.03197,0.0502 0.06394,0.0731 0.118742,0.0731 0.08677,0 0.141578,-0.0731 0.141578,-0.12787 0,-0.0502 -0.0137,-0.0868 -0.0274,-0.11418 -0.08221,-0.14614 -0.255753,-0.38363 -0.374495,-0.4978 -0.0411,-0.0365 -0.07307,-0.0548 -0.123309,-0.0548 -0.06394,0 -0.132444,0.0594 -0.132444,0.11875 z"
         style="font-family:serif;-inkscape-font-specification:serif"
         id="path50472" />
      <path
         d="m 72.451161,163.80311 c -0.09591,0 -0.159845,0.0868 -0.159845,0.18725 0,0.0959 0.06394,0.19181 0.159845,0.19181 h 2.502721 c 0.09591,0 0.159846,-0.0959 0.159846,-0.19181 0,-0.10048 -0.06394,-0.18725 -0.159846,-0.18725 z m -0.35166,1.06868 c -0.09591,0 -0.155278,0.0913 -0.155278,0.19182 0,0.0959 0.05937,0.18724 0.155278,0.18724 h 2.680835 c 0.150711,0 0.200948,0.0502 0.200948,0.13701 0,0.0274 -0.0046,0.0594 -0.0137,0.0913 -0.200948,0.80836 -0.981907,1.45688 -2.082556,1.62586 -0.100474,0.0183 -0.159845,0.0868 -0.159845,0.18268 0,0.0137 0,0.0274 0.0046,0.0411 0.0137,0.10504 0.08677,0.16898 0.191814,0.16898 0.0137,0 0.0274,0 0.0411,-0.005 1.269629,-0.18268 2.183031,-0.97277 2.406814,-1.95011 0.01827,-0.0776 0.0274,-0.15071 0.0274,-0.21922 0,-0.0959 -0.01827,-0.17811 -0.05937,-0.24661 -0.07764,-0.12788 -0.210082,-0.20552 -0.424732,-0.20552 z"
         style="font-family:serif;-inkscape-font-specification:serif"
         id="path50474" />
      <path
         d="m 78.869524,164.32832 c 0.114175,0 0.164413,0.032 0.164413,0.10047 0,0.0274 -0.0091,0.0594 -0.02284,0.10048 -0.178113,0.5115 -0.557175,1.04584 -1.032144,1.48427 -0.48867,0.44757 -1.06868,0.77639 -1.621288,0.98648 -0.08677,0.032 -0.137011,0.11417 -0.137011,0.19638 0,0.0274 0.0046,0.0548 0.0137,0.0776 0.0274,0.0776 0.09134,0.11417 0.16898,0.11417 0.03654,0 0.07307,-0.009 0.109608,-0.0228 0.707887,-0.26489 1.424907,-0.70789 1.931845,-1.26506 0.506938,0.39733 0.863165,0.73985 1.205691,1.15088 0.04567,0.0502 0.105041,0.0731 0.164412,0.0731 0.05937,0 0.118742,-0.0228 0.159846,-0.0685 0.03654,-0.0411 0.05937,-0.0913 0.05937,-0.14614 0,-0.0548 -0.02283,-0.10961 -0.06394,-0.15985 -0.383629,-0.443 -0.758124,-0.73986 -1.269629,-1.13719 0.319691,-0.39276 0.575443,-0.78095 0.726154,-1.18742 0.03197,-0.0959 0.05024,-0.18725 0.05024,-0.26488 0,-0.0913 -0.02284,-0.16442 -0.05937,-0.22835 -0.08221,-0.11875 -0.210082,-0.18269 -0.406464,-0.18269 l -2.324608,0.0228 c -0.105041,0 -0.168979,0.0731 -0.168979,0.18268 0,0.12331 0.05937,0.20095 0.168979,0.20095 z"
         style="font-family:serif;-inkscape-font-specification:serif"
         id="path50476" />
    </g>
    <g
       aria-label="d"
       id="text51481"
       style="font-size:3.18924px;line-height:1.25;stroke-width:0.0797312">
      <path
         d="m 73.987499,197.636 h -0.292762 v -0.1822 q -0.126137,0.10901 -0.263175,0.16974 -0.137037,0.0607 -0.297434,0.0607 -0.311449,0 -0.495204,-0.23982 -0.182198,-0.23982 -0.182198,-0.66494 0,-0.22113 0.06229,-0.39399 0.06385,-0.17285 0.171297,-0.29432 0.105893,-0.11835 0.246045,-0.18064 0.141709,-0.0623 0.292762,-0.0623 0.137038,0 0.242931,0.0296 0.105892,0.028 0.222686,0.0888 v -0.7537 h 0.292762 z m -0.292762,-0.42824 v -0.9982 q -0.118351,-0.0529 -0.211786,-0.0732 -0.09343,-0.0202 -0.203999,-0.0202 -0.246045,0 -0.383082,0.1713 -0.137038,0.17129 -0.137038,0.48586 0,0.30989 0.105893,0.47184 0.105892,0.1604 0.339479,0.1604 0.12458,0 0.252274,-0.0545 0.127694,-0.0561 0.238259,-0.14327 z"
         id="path989" />
    </g>
  </g>
  <g
     inkscape:groupmode="layer"
     id="layer2"
     inkscape:label="logo"
     style="display:inline">
    <g
       aria-label="®"
       id="text25552"
       style="font-size:1.9021px;line-height:1.25;stroke-width:0.0475527">
      <path
         d="m 55.906103,94.437118 q 0,0.332496 -0.235905,0.568401 -0.234976,0.234976 -0.567472,0.234976 -0.332496,0 -0.568401,-0.234976 -0.234976,-0.235905 -0.234976,-0.568401 0,-0.332496 0.234976,-0.567472 0.235905,-0.235905 0.568401,-0.235905 0.332496,0 0.567472,0.235905 0.235905,0.234976 0.235905,0.567472 z m -0.107736,0 q 0,-0.287915 -0.204327,-0.4941 -0.203398,-0.206185 -0.491314,-0.206185 -0.287915,0 -0.492243,0.206185 -0.203398,0.206185 -0.203398,0.4941 0,0.287916 0.203398,0.4941 0.204328,0.206185 0.492243,0.206185 0.287916,0 0.491314,-0.206185 0.204327,-0.206184 0.204327,-0.4941 z m -0.178322,0.408655 h -0.207113 l -0.30742,-0.32971 h -0.150459 v 0.32971 h -0.153245 v -0.849816 h 0.289773 q 0.0873,0 0.143958,0.0074 0.05665,0.0074 0.111451,0.03622 0.05851,0.03158 0.08545,0.07709 0.02786,0.04458 0.02786,0.11238 0,0.09009 -0.05294,0.150459 -0.05201,0.05944 -0.143957,0.09473 z m -0.326923,-0.606481 q 0,-0.03344 -0.013,-0.05944 -0.013,-0.026 -0.04365,-0.04272 -0.02879,-0.01579 -0.0613,-0.02043 -0.03251,-0.0046 -0.08173,-0.0046 h -0.138386 v 0.286987 h 0.117953 q 0.05758,0 0.09938,-0.0084 0.04179,-0.0093 0.06873,-0.03065 0.02879,-0.02322 0.03994,-0.05108 0.01207,-0.02786 0.01207,-0.06966 z"
         id="path50516" />
    </g>
    <g
       aria-label="カプセル"
       id="text2065"
       style="font-size:6.1875px;line-height:1.25;stroke-width:0.154688">
      <path
         d="m 31.999041,94.570068 c -0.476438,0 -0.631125,-0.0062 -0.860063,-0.0495 l -0.17325,0.903375 c 0.228938,-0.03712 0.241313,-0.03712 0.853875,-0.03712 h 0.804375 l -0.06806,0.179437 c -0.129938,0.383625 -0.27225,0.674438 -0.495,0.99 -0.439313,0.637313 -1.020938,1.107563 -1.911938,1.528313 0.259875,0.278437 0.334125,0.389812 0.51975,0.785812 0.903375,-0.51975 1.577813,-1.089 2.048063,-1.738687 0.37125,-0.525938 0.581625,-0.96525 0.829125,-1.744875 l 1.317937,-0.0062 c -0.117562,0.587813 -0.315562,1.355063 -0.476437,1.800563 -0.210375,0.594 -0.315563,0.71775 -0.606375,0.71775 -0.204188,0 -0.47025,-0.04331 -0.785813,-0.136125 0.06806,0.3465 0.06806,0.476437 -0.0062,0.928125 0.383625,0.05569 0.525937,0.06806 0.76725,0.06806 0.624937,0 0.934312,-0.179437 1.200375,-0.686812 0.228937,-0.414563 0.550687,-1.503563 0.8415,-2.778188 0.05569,-0.2475 0.08044,-0.309375 0.160875,-0.426937 l -0.340313,-0.365063 c -0.167062,0.0495 -0.235125,0.06188 -0.464062,0.06188 h -1.36125 c 0.0495,-0.198 0.06188,-0.235125 0.099,-0.365062 0.129937,-0.538313 0.129937,-0.538313 0.204187,-0.7425 l -0.983812,-0.02475 c -0.0062,0.111375 -0.01856,0.167062 -0.03713,0.259875 -0.05569,0.290812 -0.136125,0.612562 -0.204188,0.878625 z"
         style="font-style:italic;font-weight:bold;font-family:serif;-inkscape-font-specification:'serif Bold Italic'"
         id="path50519" />
      <path
         d="m 38.359791,93.96988 c -0.513563,0 -0.705375,-0.0062 -0.96525,-0.04331 l -0.185625,0.946687 c 0.259875,-0.03094 0.457875,-0.03713 0.96525,-0.03713 h 2.710125 c -0.507375,1.126125 -1.287,1.973813 -2.357438,2.580188 -0.513562,0.284625 -0.884812,0.4455 -1.454062,0.612562 0.278437,0.352688 0.352687,0.488813 0.476437,0.884813 1.16325,-0.476438 1.95525,-0.959063 2.660625,-1.627313 0.699188,-0.662062 1.256063,-1.466437 1.726313,-2.505937 l 0.04331,-0.08663 c 0.0062,0 0.01856,0 0.02475,0 0.377438,0 0.7425,-0.309375 0.81675,-0.686813 0.07425,-0.377437 -0.167062,-0.686812 -0.550687,-0.686812 -0.358875,0 -0.711563,0.278437 -0.810563,0.637312 -0.117562,0.01238 -0.191812,0.01238 -0.266062,0.01238 z m 3.83625,-0.266062 c 0.167062,0 0.27225,0.136125 0.241312,0.303187 -0.03713,0.167063 -0.198,0.303188 -0.365062,0.303188 -0.167063,0 -0.278438,-0.136125 -0.241313,-0.303188 0.03094,-0.167062 0.198,-0.303187 0.365063,-0.303187 z"
         style="font-style:italic;font-weight:bold;font-family:serif;-inkscape-font-specification:'serif Bold Italic'"
         id="path50521" />
      <path
         d="m 44.435916,94.941318 -0.525938,0.05569 c -0.297,0.03094 -0.513562,0.0495 -0.637312,0.0495 -0.03713,0 -0.105188,0 -0.185625,-0.0062 l -0.08662,0.909562 c 0.278437,-0.06187 0.303187,-0.06806 0.835312,-0.129937 l 0.433125,-0.05569 -0.278437,1.386 c -0.105188,0.538313 -0.117563,0.637313 -0.105188,0.835313 0.02475,0.266062 0.198,0.495 0.4455,0.575437 0.210375,0.07425 0.600188,0.111375 1.11375,0.111375 0.340313,0 0.785813,-0.02475 1.299375,-0.07425 0.563063,-0.05569 0.563063,-0.05569 0.699188,-0.05569 l 0.160875,-0.983813 c -0.32175,0.09281 -0.513563,0.129938 -0.86625,0.179438 -0.334125,0.04331 -0.81675,0.07425 -1.107563,0.07425 -0.210375,0 -0.402187,-0.01238 -0.538312,-0.03713 -0.167063,-0.03094 -0.235125,-0.105188 -0.228938,-0.253688 0,-0.099 0,-0.099 0.07425,-0.501187 l 0.27225,-1.355063 1.98,-0.2475 c -0.216562,0.284625 -0.358875,0.426938 -0.606375,0.624938 -0.27225,0.216562 -0.495,0.358875 -0.810562,0.51975 0.297,0.198 0.389812,0.284625 0.624937,0.606375 0.513563,-0.3465 0.754875,-0.538313 1.033313,-0.810563 0.32175,-0.327937 0.600187,-0.662062 0.872437,-1.070437 0.136125,-0.198 0.1485,-0.216563 0.253688,-0.315563 l -0.439313,-0.488812 c -0.142312,0.06188 -0.191812,0.07425 -0.476437,0.105187 l -2.258438,0.253688 0.117563,-0.600188 c 0.06806,-0.3465 0.117562,-0.507375 0.185625,-0.699187 h -1.01475 c -0.0062,0.22275 -0.03094,0.365062 -0.099,0.71775 z"
         style="font-style:italic;font-weight:bold;font-family:serif;-inkscape-font-specification:'serif Bold Italic'"
         id="path50523" />
      <path
         d="m 50.549166,93.617193 c -0.01237,0.160875 -0.03094,0.278437 -0.099,0.624937 -0.06806,0.334125 -0.160875,0.754875 -0.235125,1.058063 -0.167063,0.655875 -0.297,1.01475 -0.507375,1.423125 -0.303188,0.600187 -0.649688,0.996187 -1.21275,1.416937 0.290812,0.235125 0.383625,0.3465 0.606375,0.723938 0.482625,-0.408375 0.773437,-0.730125 1.082812,-1.181813 0.464063,-0.674437 0.711563,-1.317937 1.008563,-2.604937 0.290812,-1.218938 0.290812,-1.218938 0.352687,-1.404563 z m 1.70775,-0.04331 c -0.01237,0.154688 -0.03712,0.297 -0.09281,0.56925 -0.0062,0.05569 -0.01856,0.111375 -0.03094,0.17325 l -0.723938,3.477375 c -0.06188,0.297 -0.099,0.42075 -0.179437,0.594 l 0.358875,0.488813 c 0.09281,-0.0495 0.1485,-0.06806 0.309375,-0.12375 0.680625,-0.235125 1.033312,-0.414563 1.454062,-0.723938 0.513563,-0.383625 0.9405,-0.860062 1.324125,-1.503562 -0.284625,-0.27225 -0.365062,-0.37125 -0.550687,-0.693 -0.216563,0.439312 -0.451688,0.773437 -0.773438,1.095187 -0.290812,0.297 -0.556875,0.482625 -0.983812,0.693 l 0.686812,-3.29175 c 0.09281,-0.42075 0.111375,-0.495 0.204188,-0.748687 z"
         style="font-style:italic;font-weight:bold;font-family:serif;-inkscape-font-specification:'serif Bold Italic'"
         id="path50525" />
    </g>
  </g>
  <g
     inkscape:groupmode="layer"
     id="layer3"
     inkscape:label="components"
     style="display:none">
    <rect
       style="display:inline;vector-effect:none;fill:#00ff00;fill-opacity:1;fill-rule:evenodd;stroke:none;stroke-width:0.174288;stroke-linecap:butt;stroke-linejoin:miter;stroke-miterlimit:4;stroke-dasharray:none;stroke-dashoffset:0;stroke-opacity:0.501961;paint-order:normal"
       id="rect52922-4"
       width="7.5648513"
       height="7.5543032"
       x="44.73497"
       y="10.639445"
       inkscape:label="input_1" />
    <rect
       style="display:inline;vector-effect:none;fill:#0000ff;fill-opacity:1;fill-rule:evenodd;stroke:none;stroke-width:0.174288;stroke-linecap:butt;stroke-linejoin:miter;stroke-miterlimit:4;stroke-dasharray:none;stroke-dashoffset:0;stroke-opacity:0.501961;paint-order:normal"
       id="rect52922-4-3"
       width="7.5648513"
       height="7.5543032"
       x="44.906258"
       y="25.265247"
       inkscape:label="out_voct" />
    <rect
       style="display:inline;vector-effect:none;fill:#ff0000;fill-opacity:1;fill-rule:evenodd;stroke:none;stroke-width:0.233904;stroke-linecap:butt;stroke-linejoin:miter;stroke-miterlimit:4;stroke-dasharray:none;stroke-dashoffset:0;stroke-opacity:0.501961;paint-order:normal"
       id="rect52922-4-6"
       width="10.152446"
       height="10.138289"
       x="3.194838"
       y="66.432098"
       inkscape:label="numerator_1" />
    <rect
       style="display:inline;vector-effect:none;fill:#ff0000;fill-opacity:1;fill-rule:evenodd;stroke:none;stroke-width:0.233904;stroke-linecap:butt;stroke-linejoin:miter;stroke-miterlimit:4;stroke-dasharray:none;stroke-dashoffset:0;stroke-opacity:0.501961;paint-order:normal"
       id="rect52922-4-6-7"
       width="10.152446"
       height="10.138289"
       x="3.1948383"
       y="41.320923"
       inkscape:label="trim_1" />
    <rect
       style="display:inline;vector-effect:none;fill:#ff0000;fill-opacity:1;fill-rule:evenodd;stroke:none;stroke-width:0.233904;stroke-linecap:butt;stroke-linejoin:miter;stroke-miterlimit:4;stroke-dasharray:none;stroke-dashoffset:0;stroke-opacity:0.501961;paint-order:normal"
       id="rect52922-4-6-5"
       width="10.152446"
       height="10.138289"
       x="3.1948383"
       y="53.876511"
       inkscape:label="denominator_1" />
  </g>
</svg>
