<?xml version="1.0" encoding="UTF-8" standalone="no"?>
<!-- Created with Inkscape (http://www.inkscape.org/) -->

<svg
   width="330.49908"
   height="380"
   viewBox="0 0 87.444549 100.54166"
   version="1.1"
   id="svg12553"
   inkscape:version="1.1 (c4e8f9e, 2021-05-24)"
   sodipodi:docname="Pythagoras.svg"
   xmlns:inkscape="http://www.inkscape.org/namespaces/inkscape"
   xmlns:sodipodi="http://sodipodi.sourceforge.net/DTD/sodipodi-0.dtd"
   xmlns="http://www.w3.org/2000/svg"
   xmlns:svg="http://www.w3.org/2000/svg"
   xmlns:rdf="http://www.w3.org/1999/02/22-rdf-syntax-ns#"
   xmlns:cc="http://creativecommons.org/ns#"
   xmlns:dc="http://purl.org/dc/elements/1.1/">
  <defs
     id="defs12547" />
  <sodipodi:namedview
     id="base"
     pagecolor="#ffffff"
     bordercolor="#666666"
     borderopacity="1.0"
     inkscape:pageopacity="0.0"
     inkscape:pageshadow="2"
     inkscape:zoom="1.1321563"
     inkscape:cx="320.18547"
     inkscape:cy="175.32915"
     inkscape:document-units="mm"
     inkscape:current-layer="layer4"
     showgrid="false"
     fit-margin-top="0"
     fit-margin-left="0"
     fit-margin-right="0"
     fit-margin-bottom="0"
     units="px"
     inkscape:window-width="1678"
     inkscape:window-height="915"
     inkscape:window-x="113"
     inkscape:window-y="91"
     inkscape:window-maximized="0"
     inkscape:pagecheckerboard="0">
    <inkscape:grid
       type="xygrid"
       id="grid12870"
       originx="-20.372917"
       originy="84.666661" />
  </sodipodi:namedview>
  <metadata
     id="metadata12550">
    <rdf:RDF>
      <cc:Work
         rdf:about="">
        <dc:format>image/svg+xml</dc:format>
        <dc:type
           rdf:resource="http://purl.org/dc/dcmitype/StillImage" />
      </cc:Work>
    </rdf:RDF>
  </metadata>
  <g
     inkscape:label="Layer 1"
     inkscape:groupmode="layer"
     id="layer1"
     transform="translate(-26.543497,-161.30655)"
     style="display:inline">
    <path
       inkscape:connector-curvature="0"
       id="path33453"
       d="m 26.616839,161.37987 h 87.297891 v 100.3961 H 26.616839 Z m 0,0"
       style="fill:#acc0b0;fill-opacity:1;fill-rule:nonzero;stroke:none;stroke-width:0.276024" />
    <path
       inkscape:connector-curvature="0"
       id="path35483"
       d="M 31.305997,252.58779 H 109.35808"
       style="fill:none;stroke:#000000;stroke-width:0.184533;stroke-linecap:round;stroke-linejoin:round;stroke-miterlimit:10;stroke-opacity:1" />
    <path
       style="fill:#000000;fill-opacity:1;stroke:none;stroke-width:0.266706"
       d="m 34.599341,200.89411 c 0,0.0776 0.05637,0.13802 0.124819,0.13802 0.07248,0 0.128846,-0.0604 0.128846,-0.13802 v -1.3068 c 0,-0.0733 -0.05637,-0.1337 -0.128846,-0.1337 h -0.0039 c -0.03623,0 -0.07248,0.009 -0.120792,0.0259 l -0.221478,0.0733 c -0.04831,0.0173 -0.08456,0.0604 -0.08456,0.11645 0,0.0647 0.05234,0.11644 0.112739,0.11644 0.0121,0 0.0322,-0.004 0.04429,-0.009 l 0.149002,-0.0474 z m 0,0"
       id="path7275"
       inkscape:connector-curvature="0" />
    <path
       style="fill:#000000;fill-opacity:1;stroke:none;stroke-width:0.266706"
       d="m 43.549488,200.8898 c 0,0.0819 0.05637,0.12939 0.136898,0.12939 h 0.817413 c 0.06039,0 0.11274,-0.0518 0.11274,-0.12077 0,-0.0647 -0.05235,-0.11644 -0.11274,-0.11644 h -0.583856 l 0.293928,-0.2674 c 0.257716,-0.21996 0.378509,-0.35365 0.378509,-0.59518 v -0.009 c 0,-0.27603 -0.197319,-0.46148 -0.479168,-0.46148 -0.225481,0 -0.358376,0.0949 -0.475144,0.25015 -0.02026,0.0259 -0.0322,0.0561 -0.0322,0.0862 0,0.069 0.05235,0.12076 0.116765,0.12076 0.04027,0 0.06848,-0.0173 0.08861,-0.0388 0.08858,-0.11645 0.16911,-0.17252 0.285876,-0.17252 0.128844,0 0.233532,0.0863 0.233532,0.24152 0,0.13801 -0.07248,0.23721 -0.273796,0.41404 l -0.442932,0.40541 c -0.04027,0.0388 -0.06442,0.0819 -0.06442,0.1337 z m 0,0"
       id="path7271"
       inkscape:connector-curvature="0" />
    <path
       style="fill:#000000;fill-opacity:1;stroke:none;stroke-width:0.266706"
       d="m 53.602883,201.04506 c 0.301982,0 0.507353,-0.2027 0.507353,-0.49167 v -0.004 c 0,-0.28465 -0.209398,-0.40109 -0.426824,-0.43129 l 0.342269,-0.37521 c 0.04027,-0.0474 0.07248,-0.0863 0.07248,-0.15095 0,-0.0733 -0.05637,-0.11645 -0.128846,-0.11645 h -0.736884 c -0.06039,0 -0.11274,0.0517 -0.11274,0.11645 0,0.0647 0.05234,0.11644 0.11274,0.11644 h 0.523459 l -0.338219,0.38816 c -0.04027,0.0431 -0.05235,0.0733 -0.05235,0.11214 0,0.0604 0.04831,0.11644 0.108713,0.11644 h 0.05235 c 0.20132,0 0.330166,0.0863 0.330166,0.23721 v 0.004 c 0,0.14233 -0.104687,0.2329 -0.249639,0.2329 -0.132871,0 -0.237559,-0.0474 -0.326164,-0.14664 -0.02026,-0.0216 -0.04831,-0.0345 -0.08457,-0.0345 -0.06846,0 -0.120792,0.0604 -0.120792,0.12938 0,0.0388 0.01606,0.0776 0.04027,0.0992 0.116766,0.12076 0.273822,0.19839 0.48722,0.19839 z m 0,0"
       id="path7267"
       inkscape:connector-curvature="0" />
    <path
       style="fill:#000000;fill-opacity:1;stroke:none;stroke-width:0.266706"
       d="m 63.257643,200.90274 c 0,0.0733 0.05234,0.12939 0.120793,0.12939 0.06848,0 0.120818,-0.0561 0.120818,-0.12939 v -0.22859 h 0.112739 c 0.06039,0 0.104687,-0.0517 0.104687,-0.11213 0,-0.0604 -0.04429,-0.11213 -0.104687,-0.11213 H 63.499254 V 199.583 c 0,-0.0733 -0.05235,-0.1337 -0.120818,-0.1337 -0.0765,0 -0.108713,0.0345 -0.157031,0.0906 l -0.676463,0.86257 c -0.03623,0.0431 -0.05637,0.0906 -0.05637,0.14233 0,0.0733 0.05637,0.12938 0.12482,0.12938 h 0.644251 z m -0.475118,-0.45285 0.475118,-0.61243 v 0.61243 z m 0,0"
       id="path7263"
       inkscape:connector-curvature="0" />
    <path
       style="fill:#000000;fill-opacity:1;stroke:none;stroke-width:0.266706"
       d="m 72.606365,201.04506 c 0.306008,0 0.527485,-0.20702 0.527485,-0.52186 v -0.004 c 0,-0.32778 -0.221477,-0.48735 -0.503328,-0.48735 -0.09663,0 -0.161056,0.0173 -0.229505,0.0431 l 0.02421,-0.36228 h 0.539566 c 0.06442,0 0.112739,-0.0517 0.112739,-0.11644 0,-0.069 -0.04831,-0.12076 -0.112739,-0.12076 h -0.652306 c -0.06043,0 -0.112764,0.0474 -0.116792,0.12076 l -0.02818,0.55636 c -0.0039,0.0517 0.01211,0.0906 0.04831,0.11644 0.04831,0.0388 0.08053,0.0561 0.120818,0.0561 0.03623,0 0.104686,-0.0561 0.245611,-0.0561 0.177163,0 0.297956,0.0992 0.297956,0.25878 v 0.004 c 0,0.16389 -0.116767,0.2674 -0.277824,0.2674 -0.11274,0 -0.217427,-0.0431 -0.314085,-0.12939 -0.02026,-0.0216 -0.04429,-0.0302 -0.0765,-0.0302 -0.06442,0 -0.120793,0.0604 -0.120793,0.1337 0,0.0431 0.02026,0.0776 0.05234,0.10351 0.116766,0.0992 0.265768,0.1682 0.463063,0.1682 z m 0,0"
       id="path7259"
       inkscape:connector-curvature="0" />
    <path
       style="fill:#000000;fill-opacity:1;stroke:none;stroke-width:0.266706"
       d="m 82.144374,201.04506 c 0.302006,0 0.535537,-0.21996 0.535537,-0.52617 v -0.004 c 0,-0.30622 -0.225479,-0.48304 -0.503327,-0.48304 -0.173135,0 -0.269769,0.0733 -0.346272,0.15095 0.0121,-0.28034 0.128847,-0.48736 0.346272,-0.48736 0.09663,0 0.16911,0.0302 0.245613,0.0863 0.02026,0.009 0.04029,0.0172 0.06445,0.0172 0.06443,0 0.120792,-0.0517 0.120792,-0.12507 0,-0.0561 -0.02421,-0.0906 -0.06442,-0.11645 -0.0926,-0.069 -0.209399,-0.11214 -0.358377,-0.11214 -0.410719,0 -0.620094,0.37091 -0.620094,0.84533 v 0.004 c 0,0.31053 0.06846,0.4701 0.177163,0.58655 0.09666,0.10351 0.225505,0.16389 0.402668,0.16389 z m -0.0081,-0.23721 c -0.181188,0 -0.297956,-0.11644 -0.297956,-0.27602 v -0.004 c 0,-0.14664 0.112741,-0.27171 0.289903,-0.27171 0.181189,0 0.297954,0.11644 0.297954,0.27171 v 0.004 c 0,0.15958 -0.108712,0.27602 -0.289901,0.27602 z m 0,0"
       id="path7255"
       inkscape:connector-curvature="0" />
    <g
       aria-label="ピタゴラス"
       id="text36774"
       style="font-size:4.56701px;line-height:1.25;stroke-width:0.114176"
       transform="translate(1.0583333)">
      <path
         d="m 59.263064,165.60708 c 0.84033,-0.11418 1.708062,-0.37906 2.365711,-0.76269 0.05937,-0.032 0.09591,-0.0959 0.09591,-0.16441 0,-0.0365 -0.0091,-0.0776 -0.03197,-0.11418 -0.0411,-0.0639 -0.100474,-0.10047 -0.168979,-0.10047 -0.03654,0 -0.07764,0.009 -0.114175,0.032 -0.598279,0.35622 -1.429475,0.62111 -2.141928,0.72615 v -1.23766 c 0,-0.12331 -0.07307,-0.17355 -0.196381,-0.17355 -0.109609,0 -0.196382,0.0502 -0.196382,0.17355 v 2.38398 c 0,0.86316 0.191815,1.03214 1.301598,1.03214 0.616546,0 1.132618,-0.0365 1.548216,-0.1096 0.109609,-0.0228 0.16898,-0.0913 0.16898,-0.19639 0,-0.009 0,-0.0228 0,-0.032 -0.0137,-0.10961 -0.08221,-0.16442 -0.173547,-0.16442 -0.01827,0 -0.03654,0 -0.0548,0.005 -0.415598,0.0731 -0.917969,0.11874 -1.402072,0.11874 -0.899701,0 -1.000175,-0.0365 -1.000175,-0.62568 z m 2.74934,-2.20587 c -0.287722,0 -0.516072,0.22835 -0.516072,0.51151 0,0.28772 0.22835,0.51607 0.516072,0.51607 0.287722,0 0.516072,-0.22835 0.516072,-0.51607 0,-0.28316 -0.22835,-0.51151 -0.516072,-0.51151 z m 0,0.21009 c 0.164412,0 0.30599,0.13701 0.30599,0.30142 0,0.16441 -0.141578,0.30599 -0.30599,0.30599 -0.164412,0 -0.30599,-0.14158 -0.30599,-0.30599 0,-0.16441 0.141578,-0.30142 0.30599,-0.30142 z"
         style="font-family:serif;-inkscape-font-specification:serif"
         id="path50468" />
      <path
         d="m 65.628762,164.43792 c 0.137011,-0.005 0.182681,0.0411 0.182681,0.12788 0,0.0274 -0.0046,0.0594 -0.0137,0.0959 -0.09591,0.50694 -0.274021,0.9408 -0.566309,1.31986 -0.365361,-0.35622 -0.79466,-0.64394 -1.068681,-0.80836 -0.0411,-0.0228 -0.07764,-0.0365 -0.118742,-0.0365 -0.05024,0 -0.105041,0.0228 -0.141577,0.0731 -0.03197,0.0365 -0.05024,0.0776 -0.05024,0.11874 0,0.0548 0.02284,0.10048 0.07307,0.13245 0.333391,0.20551 0.707886,0.49323 1.045845,0.80836 -0.438433,0.43843 -0.972773,0.76269 -1.666959,0.9682 -0.09134,0.0274 -0.141577,0.0959 -0.141577,0.17355 0,0.0274 0.0046,0.0548 0.0137,0.0822 0.0274,0.0776 0.08677,0.10961 0.164412,0.10961 0.0274,0 0.0548,-0.005 0.08677,-0.009 0.863165,-0.23292 1.525381,-0.68049 1.995783,-1.24223 0.401897,-0.47953 0.657649,-1.04584 0.771825,-1.63955 0.0137,-0.0639 0.01827,-0.12331 0.01827,-0.17812 0,-0.28315 -0.173547,-0.44756 -0.456701,-0.443 l -1.46601,0.0228 c 0.06851,-0.14158 0.132443,-0.28772 0.150711,-0.37906 0.0046,-0.0137 0.0046,-0.0274 0.0046,-0.0411 0,-0.0868 -0.06851,-0.13701 -0.146144,-0.15071 -0.0274,0 -0.05024,-0.005 -0.07307,-0.005 -0.07307,0 -0.123309,0.0274 -0.159845,0.11875 -0.150711,0.38363 -0.315124,0.66678 -0.529773,0.93623 -0.200949,0.25119 -0.452134,0.48411 -0.717021,0.67135 -0.05937,0.0411 -0.08677,0.10504 -0.08677,0.16898 0,0.0411 0.0137,0.0776 0.03654,0.10961 0.0411,0.0548 0.09134,0.0822 0.146145,0.0822 0.0411,0 0.08221,-0.0137 0.118742,-0.0411 0.411031,-0.27858 0.79466,-0.68961 1.064113,-1.11891 z"
         style="font-family:serif;-inkscape-font-specification:serif"
         id="path50470" />
      <path
         d="m 67.523357,164.1502 c -0.123309,0 -0.178113,0.0776 -0.178113,0.20095 0,0.11874 0.0548,0.18725 0.173546,0.18725 h 2.39768 c 0.178114,0 0.223784,0.0457 0.223784,0.21008 v 1.89531 c 0,0.16441 -0.04567,0.21465 -0.223784,0.21465 h -2.470752 c -0.123309,0 -0.178113,0.0685 -0.178113,0.19181 0,0.11875 0.06394,0.19639 0.173546,0.19639 h 2.589495 c 0.351659,0 0.520639,-0.18725 0.520639,-0.55261 v -1.98665 c 0,-0.36536 -0.16898,-0.55718 -0.520639,-0.55718 z m 2.662567,-0.49323 c 0,0.0411 0.01827,0.0776 0.04567,0.1096 0.127876,0.14158 0.264887,0.32883 0.360794,0.49781 0.0274,0.0548 0.06394,0.0776 0.118742,0.0776 0.08677,0 0.150711,-0.0594 0.150711,-0.12788 0,-0.0594 -0.01827,-0.0913 -0.03197,-0.11874 -0.08677,-0.15071 -0.251185,-0.36993 -0.392762,-0.51151 -0.03654,-0.0365 -0.06851,-0.0502 -0.118743,-0.0502 -0.07307,0 -0.132443,0.0639 -0.132443,0.12331 z m 0.557175,-0.21465 c 0,0.0548 0.0137,0.0776 0.0548,0.11874 0.12331,0.13244 0.242052,0.31056 0.342526,0.4841 0.03197,0.0502 0.06394,0.0731 0.118742,0.0731 0.08677,0 0.141578,-0.0731 0.141578,-0.12787 0,-0.0502 -0.0137,-0.0868 -0.0274,-0.11418 -0.08221,-0.14614 -0.255753,-0.38363 -0.374495,-0.4978 -0.0411,-0.0365 -0.07307,-0.0548 -0.123309,-0.0548 -0.06394,0 -0.132444,0.0594 -0.132444,0.11875 z"
         style="font-family:serif;-inkscape-font-specification:serif"
         id="path50472" />
      <path
         d="m 72.451161,163.80311 c -0.09591,0 -0.159845,0.0868 -0.159845,0.18725 0,0.0959 0.06394,0.19181 0.159845,0.19181 h 2.502721 c 0.09591,0 0.159846,-0.0959 0.159846,-0.19181 0,-0.10048 -0.06394,-0.18725 -0.159846,-0.18725 z m -0.35166,1.06868 c -0.09591,0 -0.155278,0.0913 -0.155278,0.19182 0,0.0959 0.05937,0.18724 0.155278,0.18724 h 2.680835 c 0.150711,0 0.200948,0.0502 0.200948,0.13701 0,0.0274 -0.0046,0.0594 -0.0137,0.0913 -0.200948,0.80836 -0.981907,1.45688 -2.082556,1.62586 -0.100474,0.0183 -0.159845,0.0868 -0.159845,0.18268 0,0.0137 0,0.0274 0.0046,0.0411 0.0137,0.10504 0.08677,0.16898 0.191814,0.16898 0.0137,0 0.0274,0 0.0411,-0.005 1.269629,-0.18268 2.183031,-0.97277 2.406814,-1.95011 0.01827,-0.0776 0.0274,-0.15071 0.0274,-0.21922 0,-0.0959 -0.01827,-0.17811 -0.05937,-0.24661 -0.07764,-0.12788 -0.210082,-0.20552 -0.424732,-0.20552 z"
         style="font-family:serif;-inkscape-font-specification:serif"
         id="path50474" />
      <path
         d="m 78.869524,164.32832 c 0.114175,0 0.164413,0.032 0.164413,0.10047 0,0.0274 -0.0091,0.0594 -0.02284,0.10048 -0.178113,0.5115 -0.557175,1.04584 -1.032144,1.48427 -0.48867,0.44757 -1.06868,0.77639 -1.621288,0.98648 -0.08677,0.032 -0.137011,0.11417 -0.137011,0.19638 0,0.0274 0.0046,0.0548 0.0137,0.0776 0.0274,0.0776 0.09134,0.11417 0.16898,0.11417 0.03654,0 0.07307,-0.009 0.109608,-0.0228 0.707887,-0.26489 1.424907,-0.70789 1.931845,-1.26506 0.506938,0.39733 0.863165,0.73985 1.205691,1.15088 0.04567,0.0502 0.105041,0.0731 0.164412,0.0731 0.05937,0 0.118742,-0.0228 0.159846,-0.0685 0.03654,-0.0411 0.05937,-0.0913 0.05937,-0.14614 0,-0.0548 -0.02283,-0.10961 -0.06394,-0.15985 -0.383629,-0.443 -0.758124,-0.73986 -1.269629,-1.13719 0.319691,-0.39276 0.575443,-0.78095 0.726154,-1.18742 0.03197,-0.0959 0.05024,-0.18725 0.05024,-0.26488 0,-0.0913 -0.02284,-0.16442 -0.05937,-0.22835 -0.08221,-0.11875 -0.210082,-0.18269 -0.406464,-0.18269 l -2.324608,0.0228 c -0.105041,0 -0.168979,0.0731 -0.168979,0.18268 0,0.12331 0.05937,0.20095 0.168979,0.20095 z"
         style="font-family:serif;-inkscape-font-specification:serif"
         id="path50476" />
    </g>
  </g>
  <g
     inkscape:groupmode="layer"
     id="layer4"
     inkscape:label="labels">
    <g
       aria-label="numer"
       id="text2043"
       style="font-size:3.6594px;line-height:1.25;display:inline;stroke-width:0.0914851"
       transform="translate(-0.02976364,8.832678)">
      <path
         d="m 71.907216,48.240387 h -0.335922 v -1.136415 q 0,-0.137585 -0.01608,-0.257302 -0.01608,-0.121503 -0.05897,-0.189402 -0.04467,-0.07505 -0.128651,-0.110783 -0.08398,-0.03752 -0.217991,-0.03752 -0.137585,0 -0.287678,0.0679 -0.150092,0.0679 -0.287677,0.173321 v 1.490205 h -0.335922 v -1.995874 h 0.335922 v 0.221565 q 0.15724,-0.130437 0.3252,-0.203697 0.167961,-0.07326 0.344856,-0.07326 0.323414,0 0.493161,0.194763 0.169748,0.194763 0.169748,0.56106 z"
         id="path6048" />
      <path
         d="m 74.208635,48.240387 h -0.335921 v -0.221565 q -0.169748,0.134011 -0.325201,0.205484 -0.155453,0.07147 -0.343068,0.07147 -0.31448,0 -0.489588,-0.191189 -0.175108,-0.192976 -0.175108,-0.564634 v -1.295442 h 0.335921 v 1.136415 q 0,0.15188 0.0143,0.260875 0.01429,0.107209 0.06075,0.184043 0.04824,0.07862 0.125077,0.114356 0.07683,0.03574 0.223352,0.03574 0.130437,0 0.284104,-0.0679 0.155453,-0.0679 0.289464,-0.173321 v -1.490205 h 0.335921 z"
         id="path6050" />
      <path
         d="m 77.782268,48.240387 h -0.335921 v -1.136415 q 0,-0.128651 -0.01251,-0.248368 -0.01072,-0.119716 -0.04824,-0.191189 -0.0411,-0.07683 -0.11793,-0.116143 -0.07683,-0.03931 -0.221565,-0.03931 -0.141159,0 -0.282317,0.07147 -0.141159,0.06968 -0.282317,0.178681 0.0054,0.0411 0.0089,0.09649 0.0036,0.0536 0.0036,0.107209 v 1.277574 h -0.335922 v -1.136415 q 0,-0.132225 -0.01251,-0.250155 -0.01072,-0.119716 -0.04824,-0.191189 -0.0411,-0.07683 -0.117929,-0.114356 -0.07683,-0.03931 -0.221566,-0.03931 -0.137585,0 -0.276956,0.0679 -0.137585,0.0679 -0.27517,0.173321 v 1.490205 h -0.335921 v -1.995874 h 0.335921 v 0.221565 q 0.15724,-0.130437 0.312693,-0.203697 0.15724,-0.07326 0.334135,-0.07326 0.203697,0 0.344855,0.08577 0.142945,0.08577 0.212631,0.237647 0.203697,-0.171535 0.371658,-0.246581 0.167961,-0.07683 0.35915,-0.07683 0.328774,0 0.484227,0.200123 0.15724,0.198337 0.15724,0.5557 z"
         id="path6052" />
      <path
         d="m 80.099769,47.277293 h -1.47055 q 0,0.184042 0.05539,0.321627 0.05539,0.135798 0.15188,0.223352 0.09291,0.08577 0.219778,0.128651 0.128651,0.04288 0.282317,0.04288 0.203697,0 0.409181,-0.08041 0.207271,-0.08219 0.294825,-0.160814 h 0.01787 v 0.366297 q -0.169748,0.07147 -0.346642,0.119717 -0.176895,0.04824 -0.371658,0.04824 -0.496735,0 -0.775479,-0.268022 -0.278743,-0.26981 -0.278743,-0.764758 0,-0.489587 0.266236,-0.777265 0.268022,-0.287677 0.704005,-0.287677 0.403821,0 0.621813,0.23586 0.219778,0.235859 0.219778,0.670056 z m -0.326987,-0.257302 q -0.0018,-0.264448 -0.134012,-0.409181 -0.130437,-0.144732 -0.39846,-0.144732 -0.269809,0 -0.430622,0.159027 -0.159027,0.159027 -0.180469,0.394886 z"
         id="path6054" />
      <path
         d="m 81.854423,46.61081 h -0.01787 q -0.07505,-0.01787 -0.146519,-0.02502 -0.06969,-0.0089 -0.166174,-0.0089 -0.155453,0 -0.300185,0.06969 -0.144732,0.0679 -0.278744,0.176895 V 48.24042 H 80.60901 v -1.995874 h 0.335921 v 0.294825 q 0.200124,-0.160814 0.352003,-0.226926 0.153667,-0.0679 0.312693,-0.0679 0.08755,0 0.126864,0.0054 0.03931,0.0036 0.11793,0.01608 z"
         id="path6056" />
    </g>
    <g
       aria-label="denom"
       id="text2685"
       style="font-size:3.6594px;line-height:1.25;display:inline;stroke-width:0.0914851"
       transform="translate(-0.02977164,9.262957)">
      <path
         d="m 71.994773,57.055496 h -0.335921 v -0.209057 q -0.144732,0.125077 -0.301972,0.194763 -0.15724,0.06969 -0.341282,0.06969 -0.357363,0 -0.568208,-0.27517 -0.209057,-0.27517 -0.209057,-0.762971 0,-0.253728 0.07147,-0.452064 0.07326,-0.198337 0.196549,-0.337709 0.121504,-0.135798 0.282317,-0.20727 0.162601,-0.07147 0.335922,-0.07147 0.15724,0 0.278743,0.03395 0.121504,0.03216 0.255515,0.101848 V 54.27521 h 0.335921 z m -0.335921,-0.491374 v -1.14535 q -0.135798,-0.06075 -0.243007,-0.08398 -0.107209,-0.02323 -0.234073,-0.02323 -0.282317,0 -0.439557,0.19655 -0.15724,0.19655 -0.15724,0.557487 0,0.355576 0.121504,0.541405 0.121503,0.184042 0.389526,0.184042 0.142945,0 0.289464,-0.06254 0.146519,-0.06433 0.273383,-0.164387 z"
         id="path6059" />
      <path
         d="m 74.326569,56.092402 h -1.47055 q 0,0.184042 0.05539,0.321627 0.05539,0.135798 0.15188,0.223352 0.09291,0.08577 0.219778,0.128651 0.128651,0.04288 0.282317,0.04288 0.203697,0 0.409181,-0.08041 0.207271,-0.08219 0.294825,-0.160814 h 0.01787 v 0.366298 q -0.169748,0.07147 -0.346642,0.119716 -0.176895,0.04824 -0.371658,0.04824 -0.496735,0 -0.775479,-0.268022 -0.278743,-0.269809 -0.278743,-0.764757 0,-0.489588 0.266236,-0.777266 0.268022,-0.287677 0.704005,-0.287677 0.403821,0 0.621812,0.23586 0.219779,0.23586 0.219779,0.670056 z m -0.326987,-0.257301 q -0.0018,-0.264449 -0.134012,-0.409181 -0.130437,-0.144732 -0.39846,-0.144732 -0.269809,0 -0.430623,0.159026 -0.159026,0.159027 -0.180468,0.394887 z"
         id="path6061" />
      <path
         d="m 76.504698,57.055496 h -0.335921 v -1.136415 q 0,-0.137585 -0.01608,-0.257302 -0.01608,-0.121503 -0.05897,-0.189402 -0.04467,-0.07505 -0.128651,-0.110783 -0.08398,-0.03752 -0.217991,-0.03752 -0.137585,0 -0.287678,0.0679 -0.150092,0.0679 -0.287677,0.173321 V 57.0555 h -0.335922 v -1.995874 h 0.335922 v 0.221566 q 0.15724,-0.130438 0.325201,-0.203698 0.16796,-0.07326 0.344855,-0.07326 0.323414,0 0.493161,0.194763 0.169748,0.194763 0.169748,0.56106 z"
         id="path6063" />
      <path
         d="m 78.852575,56.058453 q 0,0.487801 -0.250154,0.770118 -0.250155,0.282317 -0.670056,0.282317 -0.423476,0 -0.67363,-0.282317 -0.248368,-0.282317 -0.248368,-0.770118 0,-0.487801 0.248368,-0.770118 0.250154,-0.284104 0.67363,-0.284104 0.419901,0 0.670056,0.284104 0.250154,0.282317 0.250154,0.770118 z m -0.346642,0 q 0,-0.387739 -0.15188,-0.575355 -0.151879,-0.189403 -0.421688,-0.189403 -0.273383,0 -0.425263,0.189403 -0.150092,0.187616 -0.150092,0.575355 0,0.375231 0.151879,0.569994 0.15188,0.192976 0.423476,0.192976 0.268022,0 0.419901,-0.191189 0.153667,-0.192976 0.153667,-0.571781 z"
         id="path6065" />
      <path
         d="m 82.286836,57.055496 h -0.335922 v -1.136415 q 0,-0.128651 -0.01251,-0.248367 -0.01072,-0.119717 -0.04824,-0.19119 -0.0411,-0.07683 -0.11793,-0.116143 -0.07683,-0.03931 -0.221565,-0.03931 -0.141159,0 -0.282317,0.07147 -0.141159,0.06969 -0.282317,0.178681 0.0054,0.0411 0.0089,0.09649 0.0036,0.0536 0.0036,0.107208 v 1.277574 H 80.66262 v -1.136415 q 0,-0.132224 -0.01251,-0.250154 -0.01072,-0.119717 -0.04824,-0.19119 -0.0411,-0.07683 -0.11793,-0.114356 -0.07683,-0.03931 -0.221565,-0.03931 -0.137585,0 -0.276957,0.0679 -0.137585,0.0679 -0.275169,0.173321 v 1.490205 h -0.335922 v -1.995874 h 0.335922 v 0.221566 q 0.157239,-0.130438 0.312693,-0.203698 0.157239,-0.07326 0.334134,-0.07326 0.203697,0 0.344856,0.08577 0.142945,0.08577 0.212631,0.237647 0.203697,-0.171535 0.371658,-0.246581 0.16796,-0.07683 0.35915,-0.07683 0.328774,0 0.484227,0.200123 0.15724,0.198337 0.15724,0.5557 z"
         id="path6067" />
    </g>
    <g
       aria-label="trim"
       id="text5063"
       style="font-size:3.6594px;line-height:1.25;display:inline;stroke-width:0.0914851"
       transform="translate(-0.02976964,9.6932441)">
      <path
         d="m 71.494463,65.445343 q -0.0947,0.02502 -0.207271,0.0411 -0.110783,0.01608 -0.198337,0.01608 -0.305545,0 -0.464572,-0.164387 -0.159026,-0.164387 -0.159026,-0.527111 v -1.061369 h -0.226926 v -0.282317 h 0.226926 v -0.573568 h 0.335921 v 0.573568 h 0.693285 v 0.282317 h -0.693285 v 0.90949 q 0,0.15724 0.0071,0.24658 0.0071,0.08755 0.05003,0.164387 0.03931,0.07147 0.107209,0.105423 0.06969,0.03216 0.210844,0.03216 0.08219,0 0.171535,-0.02323 0.08934,-0.02502 0.128651,-0.0411 h 0.01787 z"
         id="path6070" />
      <path
         d="M 73.147268,63.833635 H 73.1294 q -0.07505,-0.01787 -0.146519,-0.02502 -0.06969,-0.0089 -0.166174,-0.0089 -0.155453,0 -0.300185,0.06969 -0.144732,0.0679 -0.278744,0.176895 v 1.416945 h -0.335921 v -1.995874 h 0.335921 v 0.294825 q 0.200124,-0.160814 0.352003,-0.226926 0.153666,-0.0679 0.312693,-0.0679 0.08755,0 0.126864,0.0054 0.03931,0.0036 0.11793,0.01608 z"
         id="path6072" />
      <path
         d="M 73.828045,63.133202 H 73.44924 v -0.348429 h 0.378805 z m -0.02144,2.330009 h -0.335921 v -1.995874 h 0.335921 z"
         id="path6074" />
      <path
         d="m 77.387383,65.463211 h -0.335921 v -1.136415 q 0,-0.128651 -0.01251,-0.248368 -0.01072,-0.119716 -0.04824,-0.191189 -0.0411,-0.07683 -0.11793,-0.116143 -0.07683,-0.03931 -0.221565,-0.03931 -0.141159,0 -0.282317,0.07147 -0.141159,0.06968 -0.282317,0.178681 0.0054,0.0411 0.0089,0.09649 0.0036,0.05361 0.0036,0.107209 v 1.277574 h -0.335922 v -1.136415 q 0,-0.132225 -0.01251,-0.250154 -0.01072,-0.119717 -0.04824,-0.19119 -0.0411,-0.07683 -0.11793,-0.114356 -0.07683,-0.03931 -0.221565,-0.03931 -0.137585,0 -0.276956,0.0679 -0.137585,0.0679 -0.27517,0.173321 v 1.490205 h -0.335922 v -1.995874 h 0.335922 v 0.221565 q 0.15724,-0.130437 0.312693,-0.203697 0.15724,-0.07326 0.334134,-0.07326 0.203698,0 0.344856,0.08577 0.142945,0.08577 0.212631,0.237647 0.203697,-0.171535 0.371658,-0.246581 0.167961,-0.07683 0.35915,-0.07683 0.328774,0 0.484227,0.200123 0.15724,0.198337 0.15724,0.5557 z"
         id="path6076" />
    </g>
    <g
       aria-label="root"
       id="text5441"
       style="font-size:3.6594px;line-height:1.25;display:inline;stroke-width:0.0914851"
       transform="translate(-0.02976564,-25.40001)">
      <path
         d="m 71.48374,72.221696 h -0.01787 q -0.07505,-0.01787 -0.146519,-0.02501 -0.06969,-0.0089 -0.166174,-0.0089 -0.155453,0 -0.300185,0.06968 -0.144732,0.0679 -0.278743,0.176895 v 1.416946 h -0.335922 v -1.995874 h 0.335922 v 0.294824 q 0.200123,-0.160813 0.352003,-0.226925 0.153666,-0.0679 0.312692,-0.0679 0.08755,0 0.126864,0.0054 0.03931,0.0036 0.11793,0.01608 z"
         id="path6079" />
      <path
         d="m 73.50463,72.854229 q 0,0.487801 -0.250155,0.770118 -0.250154,0.282317 -0.670056,0.282317 -0.423475,0 -0.67363,-0.282317 -0.248367,-0.282317 -0.248367,-0.770118 0,-0.487801 0.248367,-0.770118 0.250155,-0.284104 0.67363,-0.284104 0.419902,0 0.670056,0.284104 0.250155,0.282317 0.250155,0.770118 z m -0.346643,0 q 0,-0.387739 -0.151879,-0.575355 -0.15188,-0.189402 -0.421689,-0.189402 -0.273383,0 -0.425262,0.189402 -0.150093,0.187616 -0.150093,0.575355 0,0.375231 0.15188,0.569994 0.151879,0.192977 0.423475,0.192977 0.268023,0 0.419902,-0.19119 0.153666,-0.192976 0.153666,-0.571781 z"
         id="path6081" />
      <path
         d="m 75.727429,72.854229 q 0,0.487801 -0.250154,0.770118 -0.250154,0.282317 -0.670056,0.282317 -0.423476,0 -0.67363,-0.282317 -0.248368,-0.282317 -0.248368,-0.770118 0,-0.487801 0.248368,-0.770118 0.250154,-0.284104 0.67363,-0.284104 0.419902,0 0.670056,0.284104 0.250154,0.282317 0.250154,0.770118 z m -0.346642,0 q 0,-0.387739 -0.15188,-0.575355 -0.151879,-0.189402 -0.421688,-0.189402 -0.273383,0 -0.425263,0.189402 -0.150092,0.187616 -0.150092,0.575355 0,0.375231 0.151879,0.569994 0.15188,0.192977 0.423476,0.192977 0.268022,0 0.419902,-0.19119 0.153666,-0.192976 0.153666,-0.571781 z"
         id="path6083" />
      <path
         d="m 77.285533,73.833404 q -0.0947,0.02502 -0.207271,0.0411 -0.110783,0.01608 -0.198337,0.01608 -0.305545,0 -0.464572,-0.164388 -0.159026,-0.164387 -0.159026,-0.52711 V 72.137717 H 76.029401 V 71.8554 h 0.226926 v -0.573568 h 0.335921 V 71.8554 h 0.693285 v 0.282317 h -0.693285 v 0.909489 q 0,0.15724 0.0071,0.246581 0.0071,0.08755 0.05003,0.164387 0.03931,0.07147 0.107209,0.105422 0.06969,0.03216 0.210844,0.03216 0.08219,0 0.171535,-0.02323 0.08934,-0.02501 0.128651,-0.0411 h 0.01787 z"
         id="path6085" />
    </g>
  </g>
  <g
     inkscape:groupmode="layer"
     id="layer3"
     inkscape:label="components"
     style="display:none">
    <rect
       style="display:inline;vector-effect:none;fill:#00ff00;fill-opacity:1;fill-rule:evenodd;stroke:none;stroke-width:0.174288;stroke-linecap:butt;stroke-linejoin:miter;stroke-miterlimit:4;stroke-dasharray:none;stroke-dashoffset:0;stroke-opacity:0.501961;paint-order:normal"
       id="rect52922-4"
       width="7.5648513"
       height="7.5543032"
       x="44.73497"
       y="10.639445"
       inkscape:label="input_1" />
    <rect
       style="display:inline;vector-effect:none;fill:#0000ff;fill-opacity:1;fill-rule:evenodd;stroke:none;stroke-width:0.174288;stroke-linecap:butt;stroke-linejoin:miter;stroke-miterlimit:4;stroke-dasharray:none;stroke-dashoffset:0;stroke-opacity:0.501961;paint-order:normal"
       id="rect52922-4-3"
       width="7.5648513"
       height="7.5543032"
       x="44.906258"
       y="25.265247"
       inkscape:label="out_voct" />
    <rect
       style="display:inline;vector-effect:none;fill:#ff0000;fill-opacity:1;fill-rule:evenodd;stroke:none;stroke-width:0.233904;stroke-linecap:butt;stroke-linejoin:miter;stroke-miterlimit:4;stroke-dasharray:none;stroke-dashoffset:0;stroke-opacity:0.501961;paint-order:normal"
       id="rect52922-4-6"
       width="10.152446"
       height="10.138289"
       x="3.194838"
       y="66.432098"
       inkscape:label="numerator_1" />
    <rect
       style="display:inline;vector-effect:none;fill:#ff0000;fill-opacity:1;fill-rule:evenodd;stroke:none;stroke-width:0.233904;stroke-linecap:butt;stroke-linejoin:miter;stroke-miterlimit:4;stroke-dasharray:none;stroke-dashoffset:0;stroke-opacity:0.501961;paint-order:normal"
       id="rect52922-4-6-7"
       width="10.152446"
       height="10.138289"
       x="3.1948383"
       y="41.320923"
       inkscape:label="trim_1" />
    <rect
       style="display:inline;vector-effect:none;fill:#ff0000;fill-opacity:1;fill-rule:evenodd;stroke:none;stroke-width:0.233904;stroke-linecap:butt;stroke-linejoin:miter;stroke-miterlimit:4;stroke-dasharray:none;stroke-dashoffset:0;stroke-opacity:0.501961;paint-order:normal"
       id="rect52922-4-6-5"
       width="10.152446"
       height="10.138289"
       x="3.1948383"
       y="53.876511"
       inkscape:label="denominator_1" />
  </g>
  <g
     inkscape:groupmode="layer"
     id="layer2"
     inkscape:label="logo"
     style="display:inline">
    <g
       id="g952"
       transform="matrix(0.15458572,0,0,0.15458572,11.271228,66.59086)">
      <rect
         style="fill:none;stroke:#000000;stroke-width:2.60836"
         id="rect14847-7"
         width="23.381783"
         height="23.381784"
         x="127.79365"
         y="175.42252" />
      <circle
         style="fill:none;stroke:#000000;stroke-width:2.60836"
         id="path14893-9"
         cx="139.4846"
         cy="187.11342"
         r="7.4725285" />
    </g>
    <g
       aria-label="Kapuseru"
       transform="scale(1.0091419,0.99094092)"
       id="text2518"
       style="font-size:4.5188px;line-height:1.25;stroke-width:0.11297">
      <path
         d="m 38.230315,97.967033 h -0.567056 l -1.299597,-1.462873 -0.326554,0.348619 v 1.114254 h -0.436876 v -3.285397 h 0.436876 v 1.714408 l 1.59526,-1.714408 h 0.529547 l -1.467286,1.544512 z"
         id="path976" />
      <path
         d="m 40.60445,97.967033 h -0.412605 v -0.262567 q -0.05516,0.03751 -0.150038,0.10591 -0.09267,0.06619 -0.180929,0.105909 -0.103703,0.05075 -0.238296,0.08384 -0.134593,0.0353 -0.315522,0.0353 -0.333173,0 -0.56485,-0.220644 -0.231676,-0.220645 -0.231676,-0.562644 0,-0.280218 0.119148,-0.452321 0.121354,-0.174309 0.344205,-0.273599 0.225058,-0.09929 0.540579,-0.134593 0.315522,-0.0353 0.677379,-0.05295 v -0.06399 q 0,-0.141213 -0.05075,-0.233883 -0.04854,-0.09267 -0.141213,-0.145626 -0.08826,-0.05075 -0.211819,-0.0684 -0.123561,-0.01765 -0.258154,-0.01765 -0.163277,0 -0.364063,0.04413 -0.200787,0.04192 -0.414812,0.123561 h -0.02206 v -0.421431 q 0.121354,-0.0331 0.350824,-0.07281 0.229471,-0.03972 0.452322,-0.03972 0.26036,0 0.452321,0.04413 0.194167,0.04192 0.33538,0.145625 0.139006,0.101497 0.211818,0.262567 0.07281,0.161071 0.07281,0.399367 z m -0.412605,-0.606772 v -0.686205 q -0.189754,0.01103 -0.447909,0.0331 -0.255947,0.02206 -0.405985,0.06399 -0.178722,0.05075 -0.289045,0.158864 -0.110322,0.10591 -0.110322,0.293457 0,0.211819 0.127974,0.319935 0.127974,0.105909 0.390541,0.105909 0.218438,0 0.399366,-0.08384 0.180929,-0.08605 0.33538,-0.205199 z"
         id="path978" />
      <path
         d="m 43.576532,96.704947 q 0,0.300076 -0.08605,0.549405 -0.08605,0.247121 -0.242709,0.419224 -0.145626,0.163277 -0.344206,0.253741 -0.196373,0.08826 -0.417018,0.08826 -0.191961,0 -0.348618,-0.04192 -0.154451,-0.04192 -0.315522,-0.130181 v 1.032617 h -0.414812 v -3.373655 h 0.414812 v 0.258154 q 0.165483,-0.139006 0.370683,-0.231677 0.207406,-0.09488 0.441289,-0.09488 0.445702,0 0.692824,0.337586 0.249328,0.33538 0.249328,0.933327 z m -0.42805,0.01103 q 0,-0.445702 -0.152245,-0.666346 -0.152245,-0.220645 -0.467767,-0.220645 -0.178722,0 -0.35965,0.07723 -0.180929,0.07722 -0.346412,0.202993 v 1.396679 q 0.176516,0.07943 0.302283,0.108116 0.127974,0.02868 0.289044,0.02868 0.346412,0 0.540579,-0.233883 0.194168,-0.233883 0.194168,-0.692824 z"
         id="path980" />
      <path
         d="m 46.266189,97.967033 h -0.414812 v -0.273599 q -0.209612,0.165484 -0.401573,0.253741 -0.191961,0.08826 -0.423638,0.08826 -0.388334,0 -0.604566,-0.236089 -0.216231,-0.238297 -0.216231,-0.697237 v -1.599673 h 0.414811 v 1.403299 q 0,0.187548 0.01765,0.322141 0.01765,0.132387 0.07502,0.227264 0.05957,0.09708 0.154451,0.141213 0.09488,0.04413 0.275806,0.04413 0.16107,0 0.350825,-0.08384 0.19196,-0.08384 0.357444,-0.214026 v -1.840175 h 0.414812 z"
         id="path982" />
      <path
         d="m 48.843317,97.256558 q 0,0.337586 -0.280219,0.553818 -0.278012,0.216231 -0.761223,0.216231 -0.273599,0 -0.50307,-0.06399 -0.227264,-0.06619 -0.381715,-0.143418 v -0.46556 h 0.02206 q 0.196373,0.147831 0.436876,0.236089 0.240502,0.08605 0.461147,0.08605 0.273599,0 0.42805,-0.08826 0.154451,-0.08826 0.154451,-0.278012 0,-0.145626 -0.08385,-0.220645 -0.08384,-0.07502 -0.322141,-0.127974 -0.08826,-0.01986 -0.231676,-0.04633 -0.141213,-0.02648 -0.258154,-0.05737 -0.324348,-0.08605 -0.461147,-0.251534 -0.134594,-0.16769 -0.134594,-0.410399 0,-0.152245 0.06178,-0.286838 0.06399,-0.134593 0.191961,-0.240503 0.123561,-0.103702 0.313315,-0.163276 0.191961,-0.06178 0.42805,-0.06178 0.220645,0 0.445702,0.05516 0.227264,0.05296 0.377302,0.13018 v 0.443496 h -0.02206 q -0.158864,-0.116942 -0.386128,-0.196374 -0.227264,-0.08164 -0.445702,-0.08164 -0.227264,0 -0.383921,0.08826 -0.156658,0.08605 -0.156658,0.258154 0,0.152244 0.09488,0.22947 0.09267,0.07723 0.300077,0.125767 0.114735,0.02648 0.255947,0.05295 0.143419,0.02648 0.238296,0.04854 0.289045,0.06619 0.445702,0.227264 0.156658,0.163277 0.156658,0.432463 z"
         id="path984" />
      <path
         d="m 51.502083,96.777759 h -1.815904 q 0,0.227264 0.0684,0.397161 0.0684,0.167689 0.187548,0.275805 0.114735,0.10591 0.271392,0.158864 0.158864,0.05295 0.348619,0.05295 0.251534,0 0.505276,-0.09929 0.255947,-0.101497 0.364063,-0.19858 h 0.02206 v 0.452321 q -0.209613,0.08826 -0.428051,0.147832 -0.218438,0.05957 -0.45894,0.05957 -0.613392,0 -0.957598,-0.330967 -0.344205,-0.333173 -0.344205,-0.944358 0,-0.604566 0.32876,-0.959804 0.330967,-0.355238 0.86934,-0.355238 0.498656,0 0.767843,0.291251 0.271392,0.291251 0.271392,0.827417 z m -0.403779,-0.317728 q -0.0022,-0.326554 -0.165484,-0.505276 -0.16107,-0.178722 -0.492037,-0.178722 -0.333173,0 -0.531753,0.196374 -0.196374,0.196374 -0.222851,0.487624 z"
         id="path986" />
      <path
         d="m 53.668811,95.954755 h -0.02206 q -0.09267,-0.02206 -0.180928,-0.03089 -0.08605,-0.01103 -0.2052,-0.01103 -0.191961,0 -0.370683,0.08605 -0.178722,0.08384 -0.344205,0.218438 v 1.749711 h -0.414812 v -2.464599 h 0.414812 v 0.364064 q 0.247122,-0.198581 0.43467,-0.280219 0.189754,-0.08385 0.386128,-0.08385 0.108115,0 0.156657,0.0066 0.04854,0.0044 0.145625,0.01986 z"
         id="path988" />
      <path
         d="m 56.106934,97.967033 h -0.414812 v -0.273599 q -0.209612,0.165484 -0.401573,0.253741 -0.191961,0.08826 -0.423638,0.08826 -0.388334,0 -0.604566,-0.236089 -0.216231,-0.238297 -0.216231,-0.697237 v -1.599673 h 0.414811 v 1.403299 q 0,0.187548 0.01765,0.322141 0.01765,0.132387 0.07502,0.227264 0.05957,0.09708 0.154451,0.141213 0.09488,0.04413 0.275806,0.04413 0.16107,0 0.350825,-0.08384 0.19196,-0.08384 0.357444,-0.214026 v -1.840175 h 0.414812 z"
         id="path990" />
    </g>
  </g>
</svg>
