<?xml version="1.0" encoding="UTF-8" standalone="no"?>
<!-- Created with Inkscape (http://www.inkscape.org/) -->

<svg
   width="14.8mm"
   height="128.5mm"
   viewBox="0 0 14.8 128.5"
   version="1.1"
   id="svg4352"
   inkscape:version="1.1 (c4e8f9e, 2021-05-24)"
   sodipodi:docname="Superflat.svg"
   xmlns:inkscape="http://www.inkscape.org/namespaces/inkscape"
   xmlns:sodipodi="http://sodipodi.sourceforge.net/DTD/sodipodi-0.dtd"
   xmlns="http://www.w3.org/2000/svg"
   xmlns:svg="http://www.w3.org/2000/svg"
   xmlns:rdf="http://www.w3.org/1999/02/22-rdf-syntax-ns#"
   xmlns:cc="http://creativecommons.org/ns#"
   xmlns:dc="http://purl.org/dc/elements/1.1/">
  <defs
     id="defs4346" />
  <sodipodi:namedview
     id="base"
     pagecolor="#ffffff"
     bordercolor="#666666"
     borderopacity="1.0"
     inkscape:pageopacity="0.0"
     inkscape:pageshadow="2"
     inkscape:zoom="1.4"
     inkscape:cx="34.642857"
     inkscape:cy="238.92857"
     inkscape:document-units="mm"
     inkscape:current-layer="layer1"
     showgrid="false"
     inkscape:snap-bbox="true"
     inkscape:snap-nodes="false"
     inkscape:snap-bbox-midpoints="true"
     inkscape:snap-others="false"
     inkscape:snap-page="true"
     inkscape:window-width="1962"
     inkscape:window-height="1485"
     inkscape:window-x="107"
     inkscape:window-y="193"
     inkscape:window-maximized="0"
     inkscape:bbox-nodes="false"
     inkscape:pagecheckerboard="0" />
  <metadata
     id="metadata4349">
    <rdf:RDF>
      <cc:Work
         rdf:about="">
        <dc:format>image/svg+xml</dc:format>
        <dc:type
           rdf:resource="http://purl.org/dc/dcmitype/StillImage" />
        <dc:title />
      </cc:Work>
    </rdf:RDF>
  </metadata>
  <g
     inkscape:label="Layer 1"
     inkscape:groupmode="layer"
     id="layer1"
     transform="translate(0,-168.5)">
    <path
       inkscape:connector-curvature="0"
       style="fill:#acc0b0;fill-opacity:1;fill-rule:nonzero;stroke:none;stroke-width:0.35277778"
       d="m 0.09375,168.59371 h 15.0523 V 296.90698 H 0.09375 Z m 0,0"
       id="path30841" />
    <path
       inkscape:connector-curvature="0"
       style="fill:#acc0b0;fill-opacity:1;fill-rule:nonzero;stroke:none;stroke-width:0.35277778"
       d="M 15.23977,168.5 H 0 V 296.99931 H 15.23977 Z M 15.05371,296.81328 H 0.18606 V 168.68741 h 14.86765 z m 0,0"
       id="path30843" />
    <g
       aria-label="superflat"
       transform="matrix(0,-0.87558238,0.87558238,0,0.96616385,22.159115)"
       id="text4164"
       style="font-size:12.5819px;line-height:1.25;stroke-width:0.314549">
      <path
         d="m -285.14407,9.3320853 q 0,0.9399567 -0.78023,1.5420197 -0.77408,0.602064 -2.1195,0.602064 -0.7618,0 -1.40072,-0.178162 -0.63278,-0.184305 -1.06283,-0.399328 V 9.6023996 h 0.0614 q 0.54678,0.4116144 1.21642,0.6573554 0.66964,0.239596 1.28399,0.239596 0.7618,0 1.19184,-0.24574 0.43005,-0.24574 0.43005,-0.7740815 0,-0.4054714 -0.23346,-0.6143506 -0.23345,-0.2088792 -0.89695,-0.3563233 -0.24574,-0.055292 -0.64507,-0.1290137 -0.39318,-0.073722 -0.71879,-0.1597311 -0.90309,-0.2395967 -1.28399,-0.7003597 -0.37475,-0.4669064 -0.37475,-1.142692 0,-0.4239019 0.17202,-0.7986558 0.17816,-0.3747538 0.53448,-0.6696421 0.34404,-0.2887447 0.87238,-0.4546194 0.53448,-0.1720182 1.19184,-0.1720182 0.61435,0 1.24099,0.1535877 0.63278,0.1474441 1.05054,0.3624668 v 1.2348447 h -0.0614 q -0.44233,-0.3256058 -1.07511,-0.546772 -0.63278,-0.2273097 -1.24099,-0.2273097 -0.63278,0 -1.06897,0.2457402 -0.43619,0.2395967 -0.43619,0.7187901 0,0.4239019 0.26417,0.6389246 0.25803,0.2150227 0.83552,0.3501799 0.31946,0.073722 0.71264,0.1474441 0.39933,0.073722 0.6635,0.1351571 0.8048,0.1843052 1.24099,0.6327811 0.43619,0.4546194 0.43619,1.2041271 z"
         id="path10020" />
      <path
         d="m -277.79644,11.310294 h -1.15498 v -0.761795 q -0.58363,0.460763 -1.11811,0.706504 -0.53449,0.24574 -1.17956,0.24574 -1.08125,0 -1.68332,-0.657355 -0.60206,-0.663499 -0.60206,-1.9413481 V 4.4479983 h 1.15498 v 3.9072696 q 0,0.522198 0.0491,0.8969518 0.0491,0.3686104 0.20887,0.6327811 0.16588,0.2703142 0.43005,0.3931842 0.26417,0.12287 0.76794,0.12287 0.44847,0 0.97682,-0.233453 0.53448,-0.2334531 0.99524,-0.59592 V 4.4479983 h 1.15498 z"
         id="path10022" />
      <path
         d="m -269.48427,7.7962089 q 0,0.8355168 -0.2396,1.5297329 -0.2396,0.6880722 -0.67579,1.1672662 -0.40547,0.454619 -0.95838,0.706503 -0.54678,0.24574 -1.16113,0.24574 -0.53448,0 -0.97067,-0.116726 -0.43005,-0.116727 -0.87852,-0.362467 v 2.87516 h -1.15498 V 4.4479983 h 1.15498 v 0.7187902 q 0.46076,-0.3870409 1.03211,-0.6450681 0.57749,-0.2641708 1.2287,-0.2641708 1.24099,0 1.92906,0.9399564 0.69422,0.9338129 0.69422,2.5987029 z m -1.19184,0.030717 q 0,-1.2409881 -0.42391,-1.8553387 -0.4239,-0.6143506 -1.30242,-0.6143506 -0.49762,0 -1.00139,0.2150227 -0.50377,0.2150227 -0.96453,0.5652026 v 3.8888391 q 0.49148,0.221167 0.84166,0.301032 0.35632,0.07987 0.8048,0.07987 0.96453,0 1.50516,-0.6512123 0.54063,-0.6512116 0.54063,-1.9290608 z"
         id="path10024" />
      <path
         d="m -261.94005,7.9989446 h -5.0561 q 0,0.6327811 0.19044,1.105831 0.19045,0.4669064 0.5222,0.7679382 0.31946,0.2948882 0.75565,0.4423322 0.44234,0.147444 0.97068,0.147444 0.70036,0 1.40686,-0.276457 0.71265,-0.2826017 1.01368,-0.5529159 h 0.0614 v 1.2594189 q -0.58363,0.24574 -1.19184,0.411615 -0.6082,0.165874 -1.27785,0.165874 -1.70789,0 -2.66628,-0.921526 -0.95838,-0.9276689 -0.95838,-2.62942 0,-1.6833205 0.91538,-2.672425 0.92152,-0.9891044 2.42054,-0.9891044 1.38843,0 2.13794,0.8109428 0.75565,0.8109427 0.75565,2.3038146 z m -1.12426,-0.8846648 q -0.006,-0.9092389 -0.46076,-1.4068628 -0.44848,-0.497624 -1.37001,-0.497624 -0.92767,0 -1.48058,0.546772 -0.54677,0.546772 -0.62049,1.3577148 z"
         id="path10026" />
      <path
         d="m -255.90713,5.707417 h -0.0614 q -0.25803,-0.061435 -0.50377,-0.086009 -0.2396,-0.030718 -0.57135,-0.030718 -0.53448,0 -1.0321,0.2395967 -0.49763,0.2334532 -0.95839,0.608207 v 4.8718003 h -1.15498 V 4.4479983 h 1.15498 v 1.0136784 q 0.68807,-0.5529155 1.21027,-0.7802252 0.52834,-0.2334532 1.07511,-0.2334532 0.30103,0 0.43619,0.018431 0.13516,0.012287 0.40547,0.055292 z"
         id="path10028" />
      <path
         d="m -251.11519,2.8691173 h -0.0614 q -0.19045,-0.055292 -0.49762,-0.1105831 -0.30718,-0.061435 -0.54063,-0.061435 -0.74337,0 -1.08126,0.3317493 -0.33175,0.3256058 -0.33175,1.1856966 v 0.2334532 h 2.08265 v 0.9706739 h -2.04579 v 5.8916218 h -1.15498 V 5.4186722 h -0.78022 V 4.4479983 h 0.78022 V 4.2206886 q 0,-1.2225576 0.60821,-1.8737692 0.60821,-0.6573552 1.75704,-0.6573552 0.38705,0 0.69422,0.036861 0.31332,0.036861 0.57135,0.086009 z"
         id="path10030" />
      <path
         d="m -249.21685,11.310294 h -1.15498 V 1.7509993 h 1.15498 z"
         id="path10032" />
      <path
         d="m -241.58661,11.310294 h -1.14884 v -0.731077 q -0.15359,0.10444 -0.41776,0.294888 -0.25802,0.184305 -0.50377,0.294889 -0.28874,0.1413 -0.66349,0.233453 -0.37476,0.0983 -0.87852,0.0983 -0.92767,0 -1.57274,-0.614351 -0.64507,-0.61435 -0.64507,-1.5665937 0,-0.7802252 0.33175,-1.2594187 0.33789,-0.4853369 0.95839,-0.7617947 0.62663,-0.2764577 1.50515,-0.3747538 0.87853,-0.098296 1.88606,-0.1474441 V 6.5982253 q 0,-0.3931844 -0.1413,-0.6512116 -0.13516,-0.2580273 -0.39318,-0.4054714 -0.24574,-0.1413006 -0.58978,-0.1904487 -0.34404,-0.049148 -0.71879,-0.049148 -0.45462,0 -1.01368,0.1228701 -0.55906,0.1167266 -1.15498,0.3440363 h -0.0614 V 4.5954424 q 0.33789,-0.092152 0.97681,-0.2027357 0.63893,-0.1105831 1.25942,-0.1105831 0.72494,0 1.25942,0.1228702 0.54063,0.1167266 0.93381,0.4054713 0.38705,0.2826013 0.58978,0.7310772 0.20274,0.4484759 0.20274,1.1119745 z m -1.14884,-1.6894639 V 7.7101998 q -0.52834,0.030717 -1.24713,0.092153 -0.71265,0.061435 -1.13041,0.1781617 -0.49762,0.1413006 -0.8048,0.4423324 -0.30717,0.2948883 -0.30717,0.8170862 0,0.5897766 0.35632,0.8908079 0.35633,0.294888 1.0874,0.294888 0.60821,0 1.11198,-0.233453 0.50377,-0.2395962 0.93381,-0.5713459 z"
         id="path10034" />
      <path
         d="m -235.78715,11.248859 q -0.3256,0.08601 -0.71264,0.141301 -0.3809,0.05529 -0.68193,0.05529 -1.05054,0 -1.59731,-0.565202 -0.54677,-0.565203 -0.54677,-1.8123344 V 5.4186722 h -0.78023 V 4.4479983 h 0.78023 V 2.475933 h 1.15497 v 1.9720653 h 2.38368 v 0.9706739 h -2.38368 v 3.1270444 q 0,0.5406285 0.0246,0.8478038 0.0246,0.3010318 0.17202,0.5652025 0.13515,0.2457401 0.36861,0.3624671 0.23959,0.110583 0.72493,0.110583 0.2826,0 0.58978,-0.07987 0.30717,-0.08601 0.44233,-0.1413 h 0.0614 z"
         id="path10036" />
    </g>
    <g
       id="g11482"
       transform="matrix(0.96983401,0,0,0.96983401,0.873979,64.125995)">
      <rect
         style="fill:none;stroke:#000000;stroke-width:1.01859"
         id="rect14847"
         width="9.1307707"
         height="9.1307707"
         x="2.7411067"
         y="222.38481" />
      <circle
         style="fill:none;stroke:#000000;stroke-width:1.01859"
         id="path14893"
         cx="7.3065209"
         cy="226.9502"
         r="2.9180813" />
    </g>
  </g>
  <g
     inkscape:groupmode="layer"
     id="layer5"
     inkscape:label="components"
     style="display:none">
    <circle
       style="display:inline;opacity:1;vector-effect:none;fill:#ff0000;fill-opacity:1;fill-rule:evenodd;stroke:none;stroke-width:0.969834;stroke-linecap:butt;stroke-linejoin:miter;stroke-miterlimit:4;stroke-dasharray:none;stroke-dashoffset:0;stroke-opacity:1;paint-order:normal"
       id="circle7513"
       cx="7.4364948"
       cy="58.914257"
       r="1.9396681" />
  </g>
</svg>
